<?xml version="1.0" encoding="UTF-8"?>
<svg version="1.1" xmlns="http://www.w3.org/2000/svg" width="500" height="500">
<path d="M0 0 C1.09755615 0.00563965 2.1951123 0.0112793 3.32592773 0.01708984 C30.33694091 0.41943662 54.47804038 11.8502238 73.4375 30.9375 C73.97246094 31.49179688 74.50742188 32.04609375 75.05859375 32.6171875 C77.56757184 35.13196 80.25564345 37.42533079 82.953125 39.734375 C84.62340058 41.20131269 86.19788672 42.72206293 87.75 44.3125 C90.84173717 42.93214608 92.98906289 41.33314538 95.40234375 38.96875 C96.08997803 38.30407715 96.7776123 37.6394043 97.48608398 36.95458984 C98.21255127 36.2477002 98.93901855 35.54081055 99.6875 34.8125 C123.91097097 11.65257423 149.07963226 -0.28835934 182.94140625 0.1015625 C204.26212348 0.65928189 226.28658664 9.50562535 241.6640625 24.33203125 C243.69953141 26.35387414 243.69953141 26.35387414 246.0234375 27.94921875 C246.59320313 28.39910156 247.16296875 28.84898437 247.75 29.3125 C247.75 29.9725 247.75 30.6325 247.75 31.3125 C248.41 31.3125 249.07 31.3125 249.75 31.3125 C260.79479365 43.31771048 269.02028314 58.45178486 272.75 74.3125 C273.04648437 75.54226562 273.34296875 76.77203125 273.6484375 78.0390625 C279.49183297 104.17302138 274.20496829 130.73770056 259.99023438 153.31323242 C253.43844978 163.17106296 244.93415282 172.00861473 235.828125 179.55078125 C234.06024708 181.04948979 232.36410563 182.58572288 230.671875 184.16796875 C230.12805176 184.67553711 229.58422852 185.18310547 229.02392578 185.70605469 C227.9408901 186.72013784 226.86102573 187.73762066 225.78466797 188.75878906 C221.97071681 192.3125 221.97071681 192.3125 219.75 192.3125 C219.75 192.9725 219.75 193.6325 219.75 194.3125 C218.421875 195.65234375 218.421875 195.65234375 216.5 197.25 C212.93228281 200.28381585 209.44401845 203.38955408 206 206.5625 C205.49194824 207.02954346 204.98389648 207.49658691 204.46044922 207.9777832 C203.4144156 208.93961749 202.36868249 209.90177868 201.32324219 210.86425781 C198.75937407 213.22441698 196.19278005 215.58159802 193.625 217.9375 C193.12444092 218.39680908 192.62388184 218.85611816 192.1081543 219.3293457 C189.02550188 222.15422937 185.9256164 224.9587567 182.8125 227.75 C177.3002507 232.69869665 171.86379978 237.72777477 166.42773438 242.75976562 C155.10678417 253.23724574 143.77835326 263.70570114 132.30078125 274.01171875 C126.28414425 279.43867004 120.32264626 284.92696878 114.37890625 290.43359375 C108.57334802 295.81115402 102.75655272 301.15840564 96.75 306.3125 C96.07710937 306.89128906 95.40421875 307.47007812 94.7109375 308.06640625 C93.05946393 309.48430487 91.40506671 310.89879719 89.75 312.3125 C85.93437605 311.01426525 83.67909121 309.56283142 80.9375 306.625 C76.02593315 301.51919039 70.77120254 296.93251472 65.25 292.5 C64.425 291.778125 63.6 291.05625 62.75 290.3125 C62.75 289.6525 62.75 288.9925 62.75 288.3125 C62.16895508 288.05364014 61.58791016 287.79478027 60.98925781 287.52807617 C58.57528848 286.21765824 56.90002879 284.76403118 54.921875 282.86328125 C54.20386719 282.17943359 53.48585937 281.49558594 52.74609375 280.79101562 C51.63427734 279.71883789 51.63427734 279.71883789 50.5 278.625 C45.64806637 273.97558936 40.76384055 269.4070671 35.68359375 265.00756836 C32.51050003 262.22590299 29.44646859 259.33032402 26.375 256.4375 C21.37008506 251.74457975 16.33127376 247.0989293 11.21484375 242.52734375 C7.3798219 239.08129401 3.59438344 235.58169581 -0.1953125 232.0859375 C-2.47664219 229.99675189 -4.79750981 227.95831133 -7.1328125 225.9296875 C-11.17957424 222.40088057 -15.09873247 218.75068936 -19 215.0625 C-30.87339432 203.85759857 -30.87339432 203.85759857 -43.0625 193 C-47.69461115 188.98679306 -52.14052018 184.77340119 -56.60498047 180.57592773 C-60.23994856 177.16400005 -63.92313736 173.83231731 -67.6875 170.5625 C-86.18076765 153.9338428 -96.6433721 129.907255 -98.39233398 105.31079102 C-99.72477362 77.34312039 -90.58067805 51.82876739 -71.9375 31 C-53.15247979 10.93448532 -27.46035137 -0.14869843 0 0 Z " fill="#009245" transform="translate(161.25,160.6875)"/>
<path d="M0 0 C1.09755615 0.00563965 2.1951123 0.0112793 3.32592773 0.01708984 C30.33694091 0.41943662 54.47804038 11.8502238 73.4375 30.9375 C73.97246094 31.49179688 74.50742188 32.04609375 75.05859375 32.6171875 C77.56757184 35.13196 80.25564345 37.42533079 82.953125 39.734375 C84.62340058 41.20131269 86.19788672 42.72206293 87.75 44.3125 C90.84173717 42.93214608 92.98906289 41.33314538 95.40234375 38.96875 C96.08997803 38.30407715 96.7776123 37.6394043 97.48608398 36.95458984 C98.21255127 36.2477002 98.93901855 35.54081055 99.6875 34.8125 C123.91097097 11.65257423 149.07963226 -0.28835934 182.94140625 0.1015625 C204.26212348 0.65928189 226.28658664 9.50562535 241.6640625 24.33203125 C243.69953141 26.35387414 243.69953141 26.35387414 246.0234375 27.94921875 C246.59320313 28.39910156 247.16296875 28.84898437 247.75 29.3125 C247.75 29.9725 247.75 30.6325 247.75 31.3125 C248.41 31.3125 249.07 31.3125 249.75 31.3125 C260.79479365 43.31771048 269.02028314 58.45178486 272.75 74.3125 C273.04648437 75.54226562 273.34296875 76.77203125 273.6484375 78.0390625 C279.49183297 104.17302138 274.20496829 130.73770056 259.99023438 153.31323242 C253.43844978 163.17106296 244.93415282 172.00861473 235.828125 179.55078125 C234.06024708 181.04948979 232.36410563 182.58572288 230.671875 184.16796875 C230.12805176 184.67553711 229.58422852 185.18310547 229.02392578 185.70605469 C227.9408901 186.72013784 226.86102573 187.73762066 225.78466797 188.75878906 C221.97071681 192.3125 221.97071681 192.3125 219.75 192.3125 C219.75 192.9725 219.75 193.6325 219.75 194.3125 C218.421875 195.65234375 218.421875 195.65234375 216.5 197.25 C212.93228281 200.28381585 209.44401845 203.38955408 206 206.5625 C205.49194824 207.02954346 204.98389648 207.49658691 204.46044922 207.9777832 C203.4144156 208.93961749 202.36868249 209.90177868 201.32324219 210.86425781 C198.75937407 213.22441698 196.19278005 215.58159802 193.625 217.9375 C193.12444092 218.39680908 192.62388184 218.85611816 192.1081543 219.3293457 C189.02550188 222.15422937 185.9256164 224.9587567 182.8125 227.75 C177.3002507 232.69869665 171.86379978 237.72777477 166.42773438 242.75976562 C155.10678417 253.23724574 143.77835326 263.70570114 132.30078125 274.01171875 C126.28414425 279.43867004 120.32264626 284.92696878 114.37890625 290.43359375 C108.57334802 295.81115402 102.75655272 301.15840564 96.75 306.3125 C96.07710937 306.89128906 95.40421875 307.47007812 94.7109375 308.06640625 C93.05946393 309.48430487 91.40506671 310.89879719 89.75 312.3125 C85.93437605 311.01426525 83.67909121 309.56283142 80.9375 306.625 C76.02593315 301.51919039 70.77120254 296.93251472 65.25 292.5 C64.425 291.778125 63.6 291.05625 62.75 290.3125 C62.75 289.6525 62.75 288.9925 62.75 288.3125 C62.16895508 288.05364014 61.58791016 287.79478027 60.98925781 287.52807617 C58.57528848 286.21765824 56.90002879 284.76403118 54.921875 282.86328125 C54.20386719 282.17943359 53.48585937 281.49558594 52.74609375 280.79101562 C51.63427734 279.71883789 51.63427734 279.71883789 50.5 278.625 C45.64806637 273.97558936 40.76384055 269.4070671 35.68359375 265.00756836 C32.51050003 262.22590299 29.44646859 259.33032402 26.375 256.4375 C21.37008506 251.74457975 16.33127376 247.0989293 11.21484375 242.52734375 C7.3798219 239.08129401 3.59438344 235.58169581 -0.1953125 232.0859375 C-2.47664219 229.99675189 -4.79750981 227.95831133 -7.1328125 225.9296875 C-11.17957424 222.40088057 -15.09873247 218.75068936 -19 215.0625 C-30.87339432 203.85759857 -30.87339432 203.85759857 -43.0625 193 C-47.69461115 188.98679306 -52.14052018 184.77340119 -56.60498047 180.57592773 C-60.23994856 177.16400005 -63.92313736 173.83231731 -67.6875 170.5625 C-86.18076765 153.9338428 -96.6433721 129.907255 -98.39233398 105.31079102 C-99.72477362 77.34312039 -90.58067805 51.82876739 -71.9375 31 C-53.15247979 10.93448532 -27.46035137 -0.14869843 0 0 Z M133.75 12.3125 C132.2340625 13.1478125 132.2340625 13.1478125 130.6875 14 C129.7284375 14.6496875 129.7284375 14.6496875 128.75 15.3125 C128.75 15.9725 128.75 16.6325 128.75 17.3125 C126.3057389 18.58351577 123.85805333 19.68549588 121.3125 20.75 C116.23085724 22.97879069 111.91360853 25.62473244 107.75 29.3125 C107.75 29.9725 107.75 30.6325 107.75 31.3125 C107.193125 31.56 106.63625 31.8075 106.0625 32.0625 C100.66136357 34.9820332 98.09225234 37.98742026 95.64453125 43.5078125 C94.48385841 45.84943195 93.34446761 47.07143139 90.91015625 48.05859375 C89.51484107 48.5185021 88.11900827 48.97684309 86.72265625 49.43359375 C84.51430895 50.41751087 83.27352761 51.44510409 81.75 53.3125 C81.75 53.9725 81.75 54.6325 81.75 55.3125 C81.16734375 55.580625 80.5846875 55.84875 79.984375 56.125 C77.72213399 57.32730991 75.94423682 58.65075913 74 60.3125 C73.38640625 60.828125 72.7728125 61.34375 72.140625 61.875 C70.51823624 63.21873252 70.51823624 63.21873252 70.75 65.3125 C70.13125 65.56 69.5125 65.8075 68.875 66.0625 C66.39931313 67.51878639 65.79874998 68.69062506 64.75 71.3125 C64.09 71.3125 63.43 71.3125 62.75 71.3125 C62.75 71.9725 62.75 72.6325 62.75 73.3125 C62.14929688 73.57160156 61.54859375 73.83070313 60.9296875 74.09765625 C58.57856794 75.40804726 57.49254791 76.62525486 55.875 78.75 C53.21373584 82.0086908 50.6983954 83.71433996 46.75 85.3125 C46.75 85.9725 46.75 86.6325 46.75 87.3125 C46.13125 87.395 45.5125 87.4775 44.875 87.5625 C42.5734856 88.11244195 42.5734856 88.11244195 41.625 90.3125 C41.33625 90.9725 41.0475 91.6325 40.75 92.3125 C39.76 92.8075 39.76 92.8075 38.75 93.3125 C38.75 93.9725 38.75 94.6325 38.75 95.3125 C38.13125 95.395 37.5125 95.4775 36.875 95.5625 C34.56653196 96.10060733 34.56653196 96.10060733 33.75 98.3125 C32.75 100.3125 32.75 100.3125 30.625 101.0625 C30.00625 101.145 29.3875 101.2275 28.75 101.3125 C28.75 101.9725 28.75 102.6325 28.75 103.3125 C27.821875 103.68375 27.821875 103.68375 26.875 104.0625 C24.39931313 105.51878639 23.79874998 106.69062506 22.75 109.3125 C22.09 109.3125 21.43 109.3125 20.75 109.3125 C20.13125 110.281875 19.5125 111.25125 18.875 112.25 C16.52931896 115.63054032 16.36400429 115.46923233 12.75 116.3125 C11.45339566 118.80284386 11.45339566 118.80284386 10.75 121.3125 C10.09 121.3125 9.43 121.3125 8.75 121.3125 C8.42 121.9725 8.09 122.6325 7.75 123.3125 C5.4927974 124.79564991 3.1238217 126.01768817 0.75 127.3125 C0.75 127.9725 0.75 128.6325 0.75 129.3125 C0.09 129.3125 -0.57 129.3125 -1.25 129.3125 C-1.25 129.9725 -1.25 130.6325 -1.25 131.3125 C-2.054375 131.56 -2.85875 131.8075 -3.6875 132.0625 C-6.421081 133.03488859 -6.421081 133.03488859 -7.0625 135.4375 C-7.124375 136.05625 -7.18625 136.675 -7.25 137.3125 C-7.8275 137.415625 -8.405 137.51875 -9 137.625 C-11.60661158 138.42146465 -13.2235311 139.50315277 -15.25 141.3125 C-15.25 141.9725 -15.25 142.6325 -15.25 143.3125 C-15.91 143.3125 -16.57 143.3125 -17.25 143.3125 C-17.58 144.3025 -17.91 145.2925 -18.25 146.3125 C-19.90948148 147.32437895 -21.57580562 148.3251546 -23.25 149.3125 C-23.25 149.9725 -23.25 150.6325 -23.25 151.3125 C-23.8275 151.35375 -24.405 151.395 -25 151.4375 C-27.58687677 152.19552059 -27.58687677 152.19552059 -29.25 155.3125 C-31.48847252 158.67020877 -31.65958399 158.5270965 -35.25 159.3125 C-36.63232443 160.93876404 -37.96937515 162.6050002 -39.25 164.3125 C-39.91 164.6425 -40.57 164.9725 -41.25 165.3125 C-41.25 165.9725 -41.25 166.6325 -41.25 167.3125 C-43.23 168.3025 -43.23 168.3025 -45.25 169.3125 C-45.25 169.9725 -45.25 170.6325 -45.25 171.3125 C-47.23 172.3025 -47.23 172.3025 -49.25 173.3125 C-49.25 173.9725 -49.25 174.6325 -49.25 175.3125 C-50.24 175.3125 -51.23 175.3125 -52.25 175.3125 C-53.06600423 177.60534275 -53.06600423 177.60534275 -53.25 180.3125 C-51.91596337 182.50681371 -51.91596337 182.50681371 -49.796875 184.421875 C-49.03810059 185.17162598 -48.27932617 185.92137695 -47.49755859 186.69384766 C-46.67336426 187.47550293 -45.84916992 188.2571582 -45 189.0625 C-44.16678223 189.87380371 -43.33356445 190.68510742 -42.47509766 191.52099609 C-37.54709175 196.27289925 -32.51923757 200.69142761 -27.11328125 204.88671875 C-22.35544757 208.91757103 -18.05904369 213.42339192 -13.72998047 217.90673828 C-13.07787598 218.57560059 -12.42577148 219.24446289 -11.75390625 219.93359375 C-11.17455322 220.5361499 -10.5952002 221.13870605 -9.99829102 221.75952148 C-8.1783207 223.37617156 -6.41656946 224.23375705 -4.25 225.3125 C-3.05755386 226.73681066 -1.86878693 228.16461277 -0.7109375 229.6171875 C2.771006 233.65773156 7.04804344 236.96601538 11.21875 240.265625 C17.48488538 245.24167368 23.08466606 250.56072978 28.67358398 256.27709961 C32.53332573 260.19252358 36.48111706 263.69971475 40.98046875 266.8828125 C42.96229902 268.48402636 44.24033898 270.2717394 45.75 272.3125 C46.925625 272.993125 46.925625 272.993125 48.125 273.6875 C51.40876056 275.72030416 53.2873696 278.35734352 55.75 281.3125 C58.1246543 282.93421513 60.35186941 284.14661226 63 285.25 C63.5775 285.600625 64.155 285.95125 64.75 286.3125 C64.8428125 286.89 64.935625 287.4675 65.03125 288.0625 C66.1148286 291.45457212 68.36200938 293.03678104 71 295.375 C71.95390625 296.23222656 72.9078125 297.08945312 73.890625 297.97265625 C76.42628302 300.04760045 78.94598657 301.64253296 81.75 303.3125 C82.53375 304.22 83.3175 305.1275 84.125 306.0625 C86.63311092 308.68606224 86.63311092 308.68606224 90.375 308.4375 C94.48312247 307.06812584 94.76960914 306.01496987 96.75 302.3125 C98.73188345 300.95238391 100.72951869 299.61458796 102.75 298.3125 C102.75 297.6525 102.75 296.9925 102.75 296.3125 C103.41 296.3125 104.07 296.3125 104.75 296.3125 C106.16754725 295.06399165 106.16754725 295.06399165 107.75 293.3125 C111.35539494 289.65650303 115.04315208 286.10986883 118.8125 282.625 C119.32876953 282.13966797 119.84503906 281.65433594 120.37695312 281.15429688 C123.03674502 278.69780118 125.47446182 276.83328559 128.75 275.3125 C130.12073786 273.67645804 131.45055256 272.00571939 132.75 270.3125 C135.33350893 267.60296625 137.63143016 265.39154656 140.75 263.3125 C140.75 262.6525 140.75 261.9925 140.75 261.3125 C141.28625 261.085625 141.8225 260.85875 142.375 260.625 C146.62736506 258.27500878 150.02461096 255.03788904 153.4375 251.625 C155.75 249.3125 155.75 249.3125 158.75 247.3125 C158.75 246.6525 158.75 245.9925 158.75 245.3125 C159.62205078 244.93544922 159.62205078 244.93544922 160.51171875 244.55078125 C163.02690843 243.15930633 164.59849092 241.59200967 166.5625 239.5 C169.03950044 236.94487524 171.41242 234.72067406 174.375 232.75 C177.60894515 230.57696446 179.77898788 228.01077028 182.21875 225 C183.78089144 223.27845637 185.32059014 222.09877324 187.25 220.8125 C189.78300782 219.11648607 191.59917486 217.44399357 193.5 215.0625 C196.80436066 210.99356653 200.77726996 207.97118748 204.8671875 204.72265625 C208.66310364 201.54910576 212.05736948 198.06226125 215.4609375 194.4765625 C217.75 192.3125 217.75 192.3125 220.5390625 190.7109375 C221.26867187 190.24945313 221.99828125 189.78796875 222.75 189.3125 C222.75 188.3225 222.75 187.3325 222.75 186.3125 C223.3275 186.044375 223.905 185.77625 224.5 185.5 C226.80550043 184.28320811 228.77056192 183.00916121 230.75 181.3125 C230.75 180.6525 230.75 179.9925 230.75 179.3125 C231.3275 179.044375 231.905 178.77625 232.5 178.5 C234.80550043 177.28320811 236.77056192 176.00916121 238.75 174.3125 C238.75 173.6525 238.75 172.9925 238.75 172.3125 C239.74 171.9825 240.73 171.6525 241.75 171.3125 C241.75 170.6525 241.75 169.9925 241.75 169.3125 C242.34683594 169.0546875 242.94367188 168.796875 243.55859375 168.53125 C245.93085817 167.21191578 247.13413125 165.9250068 248.8125 163.8125 C250.75872186 161.37585088 252.08393182 160.08987879 254.75 158.3125 C256.5897605 155.05753911 258.04211272 151.99351385 258.75 148.3125 C259.41 148.3125 260.07 148.3125 260.75 148.3125 C264.49520332 142.15121675 267.00144519 136.18266748 268.9375 129.25 C269.18435547 128.40373047 269.43121094 127.55746094 269.68554688 126.68554688 C270.16922072 125.01268026 270.64234802 123.33672392 271.10424805 121.65771484 C271.5042487 120.20500924 271.91947354 118.75628961 272.35864258 117.31494141 C274.02834495 111.5070868 274.09450518 105.82756324 274.0625 99.8125 C274.05730347 98.22888672 274.05730347 98.22888672 274.05200195 96.61328125 C273.89287327 85.0645831 272.41841858 73.98317103 267.75 63.3125 C267.09 63.3125 266.43 63.3125 265.75 63.3125 C265.6571875 62.136875 265.6571875 62.136875 265.5625 60.9375 C264.4467665 55.95961207 262.14693773 51.78796306 259.75 47.3125 C259.09 47.3125 258.43 47.3125 257.75 47.3125 C257.54375 46.6525 257.3375 45.9925 257.125 45.3125 C252.62434234 35.4928833 244.25378258 28.24190375 235.765625 21.890625 C233.75 20.3125 233.75 20.3125 232.20703125 18.7265625 C230.61658819 17.18302258 229.1868926 16.38084599 227.1875 15.4375 C224.98797353 14.39499553 222.82590416 13.35545914 220.70703125 12.15625 C206.2978132 4.19930127 191.77863195 1.72410243 175.5 1.625 C174.789646 1.61383148 174.07929199 1.60266296 173.34741211 1.59115601 C159.03184753 1.42859181 145.95171368 4.54532984 133.75 12.3125 Z " fill="#3AB54A" transform="translate(161.25,160.6875)"/>
<path d="M0 0 C1.59613423 1.19137291 3.18026117 2.39905796 4.75 3.625 C5.78060547 4.39070313 5.78060547 4.39070313 6.83203125 5.171875 C16.10137295 12.558096 22.69376293 23.61748608 26.75 34.625 C27.06839844 35.47578125 27.38679687 36.3265625 27.71484375 37.203125 C33.00546767 54.26965377 30.71092276 73.76688783 22.71606445 89.47314453 C13.76301886 106.02696477 -1.07018056 118.15816119 -19.04296875 123.60253906 C-37.27266217 128.46924863 -55.85137647 126.22680886 -72.4765625 117.3125 C-87.16420905 108.37579112 -99.9553708 93.82700426 -104.7265625 77.00390625 C-108.99425694 57.60819048 -107.90012361 38.62658386 -97.16796875 21.44140625 C-85.89836398 4.89276055 -71.78959549 -5.61776698 -52.25 -10.375 C-51.47914063 -10.56707031 -50.70828125 -10.75914063 -49.9140625 -10.95703125 C-32.52804 -13.68475032 -14.56722092 -9.934221 0 0 Z " fill="#019245" transform="translate(288.25,38.375)"/>
<path d="M0 0 C2.75361799 2.24368873 5.35773318 4.554811 7.9140625 7.01953125 C9.94953141 9.04137414 9.94953141 9.04137414 12.2734375 10.63671875 C12.84320313 11.08660156 13.41296875 11.53648437 14 12 C14 12.66 14 13.32 14 14 C14.66 14 15.32 14 16 14 C27.04479365 26.00521048 35.27028314 41.13928486 39 57 C39.29648437 58.22976562 39.59296875 59.45953125 39.8984375 60.7265625 C45.74183297 86.86052138 40.45496829 113.42520056 26.24023438 136.00073242 C19.68844978 145.85856296 11.18415282 154.69611473 2.078125 162.23828125 C0.31024708 163.73698979 -1.38589437 165.27322288 -3.078125 166.85546875 C-3.62194824 167.36303711 -4.16577148 167.87060547 -4.72607422 168.39355469 C-5.8091099 169.40763784 -6.88897427 170.42512066 -7.96533203 171.44628906 C-11.77928319 175 -11.77928319 175 -14 175 C-14 175.66 -14 176.32 -14 177 C-15.328125 178.33984375 -15.328125 178.33984375 -17.25 179.9375 C-20.81771719 182.97131585 -24.30598155 186.07705408 -27.75 189.25 C-28.25805176 189.71704346 -28.76610352 190.18408691 -29.28955078 190.6652832 C-30.3355844 191.62711749 -31.38131751 192.58927868 -32.42675781 193.55175781 C-34.99062593 195.91191698 -37.55721995 198.26909802 -40.125 200.625 C-40.62555908 201.08430908 -41.12611816 201.54361816 -41.6418457 202.0168457 C-44.72449812 204.84172937 -47.8243836 207.6462567 -50.9375 210.4375 C-56.4497493 215.38619665 -61.88620022 220.41527477 -67.32226562 225.44726562 C-78.64321583 235.92474574 -89.97164674 246.39320114 -101.44921875 256.69921875 C-107.46585575 262.12617004 -113.42735374 267.61446878 -119.37109375 273.12109375 C-125.17665198 278.49865402 -130.99344728 283.84590564 -137 289 C-137.67289063 289.57878906 -138.34578125 290.15757812 -139.0390625 290.75390625 C-140.69053607 292.17180487 -142.34493329 293.58629719 -144 295 C-147.81562395 293.70176525 -150.07090879 292.25033142 -152.8125 289.3125 C-157.72406685 284.20669039 -162.97879746 279.62001472 -168.5 275.1875 C-169.7375 274.1046875 -169.7375 274.1046875 -171 273 C-171 272.34 -171 271.68 -171 271 C-171.87156738 270.61171021 -171.87156738 270.61171021 -172.76074219 270.21557617 C-175.17471152 268.90515824 -176.84997121 267.45153118 -178.828125 265.55078125 C-179.90513672 264.52500977 -179.90513672 264.52500977 -181.00390625 263.47851562 C-182.11572266 262.40633789 -182.11572266 262.40633789 -183.25 261.3125 C-188.10193363 256.66308936 -192.98615945 252.0945671 -198.06640625 247.69506836 C-201.23949997 244.91340299 -204.30353141 242.01782402 -207.375 239.125 C-212.37991494 234.43207975 -217.41872624 229.7864293 -222.53515625 225.21484375 C-226.3701781 221.76879401 -230.15561656 218.26919581 -233.9453125 214.7734375 C-236.22664219 212.68425189 -238.54750981 210.64581133 -240.8828125 208.6171875 C-244.92957424 205.08838057 -248.84873247 201.43818936 -252.75 197.75 C-264.62339432 186.54509857 -264.62339432 186.54509857 -276.8125 175.6875 C-280.93508152 172.10874838 -284.9360403 168.40036361 -288.9375 164.6875 C-289.61337158 164.06383545 -290.28924316 163.4401709 -290.9855957 162.79760742 C-291.61812256 162.20826416 -292.25064941 161.6189209 -292.90234375 161.01171875 C-293.76073853 160.21447388 -293.76073853 160.21447388 -294.63647461 159.40112305 C-296 158 -296 158 -297 156 C-293.07494876 157.72633545 -290.76330594 160.1475391 -287.87890625 163.24609375 C-286.03714603 165.09705671 -286.03714603 165.09705671 -283.62890625 166.37109375 C-280.40344171 168.36963567 -277.97096646 170.89880684 -275.375 173.625 C-271.66767448 177.43258509 -267.94381588 180.9684341 -263.75 184.25 C-257.89285788 188.87765456 -252.74897324 194.13823723 -247.56933594 199.50488281 C-244.23209927 202.92824172 -241.23444859 205.69311576 -237 208 C-235.66104368 209.66215268 -234.32869858 211.32963607 -233 213 C-229.66868457 216.17268136 -226.13335992 219.10298053 -222.52734375 221.95703125 C-216.28831077 226.90966567 -210.71229293 232.20114343 -205.14892578 237.89208984 C-200.98526106 242.11574641 -196.64984426 245.89556331 -191.890625 249.44921875 C-190 251 -190 251 -188 254 C-187.236875 254.433125 -186.47375 254.86625 -185.6875 255.3125 C-182.38625532 257.38537457 -180.4859762 260.01682856 -178 263 C-175.50240018 264.69882448 -175.50240018 264.69882448 -173 266 C-170.47871944 267.63141683 -169.16044015 268.72016253 -167.65625 271.34375 C-165.9097323 274.14476896 -164.10777919 275.96421948 -161.625 278.125 C-160.87476563 278.78757812 -160.12453125 279.45015625 -159.3515625 280.1328125 C-157.02913452 282.06261309 -157.02913452 282.06261309 -154.359375 283.5703125 C-152 285 -152 285 -149.625 287.75 C-147.11688908 290.37356224 -147.11688908 290.37356224 -143.375 290.125 C-139.88276824 289.32978941 -139.88276824 289.32978941 -138.3125 286.625 C-137.879375 285.75875 -137.44625 284.8925 -137 284 C-133.5862069 281 -133.5862069 281 -131 281 C-131 280.34 -131 279.68 -131 279 C-130.34 279 -129.68 279 -129 279 C-128.67 278.01 -128.34 277.02 -128 276 C-127.4225 275.731875 -126.845 275.46375 -126.25 275.1875 C-123.63675249 273.80828604 -122.30038398 272.00772187 -120.48828125 269.71875 C-116.64138715 265.27614264 -111.83629363 261.32809396 -107 258 C-106.34 258 -105.68 258 -105 258 C-104.7525 257.38125 -104.505 256.7625 -104.25 256.125 C-102.76259631 253.59641373 -101.56321991 253.28160996 -99 252 C-98.67 251.34 -98.34 250.68 -98 250 C-96.75491604 247.50983207 -95.53283204 247.01313282 -93 246 C-93 245.34 -93 244.68 -93 244 C-90.8828125 242.0546875 -90.8828125 242.0546875 -88.125 239.875 C-87.22007812 239.15054687 -86.31515625 238.42609375 -85.3828125 237.6796875 C-83 236 -83 236 -81 236 C-80.7525 235.38125 -80.505 234.7625 -80.25 234.125 C-78.79371361 231.64931313 -77.62187494 231.04874998 -75 230 C-75 229.34 -75 228.68 -75 228 C-73.53125 226.51953125 -73.53125 226.51953125 -71.5 224.8125 C-70.77167969 224.19246094 -70.04335938 223.57242188 -69.29296875 222.93359375 C-68.15794922 221.97646484 -68.15794922 221.97646484 -67 221 C-61.43496895 216.23246379 -61.43496895 216.23246379 -56.1875 211.125 C-54 209 -54 209 -51 208 C-50.67 207.01 -50.34 206.02 -50 205 C-48.57889594 204.0864331 -47.15585262 203.17572717 -45.72265625 202.28125 C-43.75144708 200.81513524 -42.37341043 199.2081599 -40.8125 197.3125 C-37.25066771 193.06811395 -33.18369263 189.81000105 -28.8515625 186.37890625 C-25.02886852 183.18983689 -21.61723277 179.67283647 -18.19140625 176.06640625 C-16 174 -16 174 -13.77734375 172.90234375 C-11.63510556 172.07657581 -11.63510556 172.07657581 -11 169 C-9.546875 167.7890625 -9.546875 167.7890625 -7.75 166.625 C-5.28867781 164.95895164 -3.4462651 163.4462651 -1.3125 161.3125 C0.76792802 159.23207198 2.30877669 158.09642431 5 157 C5 156.34 5 155.68 5 155 C6.3203125 153.73828125 6.3203125 153.73828125 8.125 152.3125 C11.40189265 149.61388252 14.07899433 146.71839881 16.73828125 143.41796875 C18 142 18 142 20 141 C21.05226728 139.02699884 22.04788888 137.02323613 23 135 C23.66666667 133.66666667 24.33333333 132.33333333 25 131 C25.66 131 26.32 131 27 131 C27.67561748 129.3369416 28.33933281 127.66905395 29 126 C29.433125 124.906875 29.86625 123.81375 30.3125 122.6875 C31.873888 118.50521072 33.22413251 114.25772762 34.5625 110 C34.77237549 109.33572998 34.98225098 108.67145996 35.19848633 107.98706055 C35.81750776 105.99645786 36.41177949 103.99990057 37 102 C37.56074219 100.12828125 37.56074219 100.12828125 38.1328125 98.21875 C39.39191036 93.02283483 39.34039772 87.82085591 39.3125 82.5 C39.30839111 80.9207373 39.30839111 80.9207373 39.30419922 79.30957031 C39.18584208 70.39333241 39.01495411 59.9443776 34.8984375 51.828125 C34 50 34 50 34 46 C33.34 46 32.68 46 32 46 C31.18395001 44.0848421 30.37229368 42.16781166 29.5625 40.25 C29.11003906 39.18265625 28.65757812 38.1153125 28.19140625 37.015625 C27.26020447 34.6586159 26.5215928 32.47007165 26 30 C25.34 30 24.68 30 24 30 C22.8946653 28.37485926 21.86646119 26.69701265 20.875 25 C15.57744821 16.4693032 8.86683441 10.68245614 0.90625 4.6640625 C0.2771875 4.11492187 -0.351875 3.56578125 -1 3 C-1 2.34 -1 1.68 -1 1 C-2.258125 0.62875 -3.51625 0.2575 -4.8125 -0.125 C-8.46196835 -1.32459376 -11.52764832 -2.8322334 -14.8125 -4.8125 C-33.89864809 -15.24208912 -53.82823105 -15.02581024 -75 -15 C-75 -15.33 -75 -15.66 -75 -16 C-48.73645825 -20.52316552 -22.0625501 -14.85186299 0 0 Z " fill="#BCEAD1" transform="translate(395,178)"/>
<path d="M0 0 C10.10960752 8.92024193 16.14407867 23.2564674 17.20654297 36.5925293 C17.93784454 57.36641982 14.31219824 74.48178456 0.296875 90.54296875 C-13.03651456 104.80606744 -29.60209569 112.71598988 -49.12768555 113.46826172 C-67.55890989 113.70851632 -84.40147045 107.65775078 -98 95 C-98.33 94.34 -98.66 93.68 -99 93 C-97.68 93.33 -96.36 93.66 -95 94 C-95 94.66 -95 95.32 -95 96 C-93.700625 96.37125 -93.700625 96.37125 -92.375 96.75 C-88.78939936 98.07800024 -86.03672013 99.68630848 -83 102 C-83 102.66 -83 103.32 -83 104 C-81.96166016 104.185625 -81.96166016 104.185625 -80.90234375 104.375 C-76.59093893 105.30343172 -72.44990253 106.7150254 -68.25390625 108.0625 C-55.36848174 111.77498725 -41.72896792 110.72800908 -29 107 C-28.00226563 106.71382813 -27.00453125 106.42765625 -25.9765625 106.1328125 C-23.64236017 105.4462824 -21.31837373 104.73790225 -19 104 C-19 103.34 -19 102.68 -19 102 C-17.02 101.34 -15.04 100.68 -13 100 C-13 99.34 -13 98.68 -13 98 C-11.36395804 96.62926214 -9.69321939 95.29944744 -8 94 C-6.97895449 93.02149805 -5.9793879 92.02019573 -5 91 C-4.22914063 90.26394531 -3.45828125 89.52789062 -2.6640625 88.76953125 C8.69395687 76.96185422 13.41112073 63.65142312 13.1875 47.5625 C13.18685547 46.68529297 13.18621094 45.80808594 13.18554688 44.90429688 C13.07960469 28.93056996 10.66524312 17.76978544 1.625 4.5 C0 2 0 2 0 0 Z " fill="#BBE7CF" transform="translate(301,51)"/>
<path d="M0 0 C4.66521373 3.73598972 9.02303812 7.67386141 13.171875 11.97265625 C15.68085309 14.48742875 18.3689247 16.78079954 21.06640625 19.08984375 C22.73668183 20.55678144 24.31116797 22.07753168 25.86328125 23.66796875 C28.95501842 22.28761483 31.10234414 20.68861413 33.515625 18.32421875 C34.20325928 17.6595459 34.89089355 16.99487305 35.59936523 16.31005859 C36.32583252 15.60316895 37.0522998 14.8962793 37.80078125 14.16796875 C52.7501128 -0.12500394 72.92433182 -17.52611851 94.80078125 -18.45703125 C95.48140625 -18.41578125 96.16203125 -18.37453125 96.86328125 -18.33203125 C93.72242666 -16.63850633 90.58268055 -15.56609509 87.17578125 -14.51953125 C80.90935022 -12.47162784 74.59505989 -10.06380989 69.86328125 -5.33203125 C68.87328125 -5.33203125 67.88328125 -5.33203125 66.86328125 -5.33203125 C66.86328125 -4.67203125 66.86328125 -4.01203125 66.86328125 -3.33203125 C62.62202229 0.11399166 58.84053282 2.16052071 53.7109375 3.9296875 C48.2206561 6.12347859 44.12317723 11.24067306 40.17578125 15.48046875 C38.86328125 16.66796875 38.86328125 16.66796875 36.86328125 16.66796875 C36.86328125 17.32796875 36.86328125 17.98796875 36.86328125 18.66796875 C35.3671875 20.10546875 35.3671875 20.10546875 33.42578125 21.66796875 C30.71139887 23.81321919 30.71139887 23.81321919 28.86328125 26.66796875 C23.84886522 26.51601675 21.52973379 23.74095546 18.21875 20.359375 C16.86328125 18.66796875 16.86328125 18.66796875 16.86328125 16.66796875 C16.28578125 16.39984375 15.70828125 16.13171875 15.11328125 15.85546875 C12.80778082 14.63867686 10.84271933 13.36462996 8.86328125 11.66796875 C8.86328125 11.00796875 8.86328125 10.34796875 8.86328125 9.66796875 C8.26386719 9.39210937 7.66445312 9.11625 7.046875 8.83203125 C4.86328125 7.66796875 4.86328125 7.66796875 1.92578125 5.04296875 C-1.97329815 1.57141999 -6.36334626 -1.0206336 -10.86889648 -3.61572266 C-12.3225776 -4.4703792 -13.73427692 -5.39566407 -15.13671875 -6.33203125 C-15.13671875 -6.99203125 -15.13671875 -7.65203125 -15.13671875 -8.33203125 C-16.22339844 -8.62207031 -16.22339844 -8.62207031 -17.33203125 -8.91796875 C-22.3171749 -10.26063411 -27.26266566 -11.61952611 -32.13671875 -13.33203125 C-32.13671875 -13.99203125 -32.13671875 -14.65203125 -32.13671875 -15.33203125 C-42.47617856 -16.9360623 -52.59514421 -17.77297471 -63.07421875 -17.76953125 C-63.77327332 -17.77059875 -64.47232788 -17.77166626 -65.19256592 -17.77276611 C-75.98470176 -17.74903223 -85.19034211 -16.81946629 -95.13671875 -12.33203125 C-96.46375746 -11.76178829 -97.791921 -11.19415715 -99.12109375 -10.62890625 C-101.58333585 -9.58025222 -104.01088855 -8.49500057 -106.44140625 -7.37109375 C-107.33085938 -7.02820313 -108.2203125 -6.6853125 -109.13671875 -6.33203125 C-109.79671875 -6.66203125 -110.45671875 -6.99203125 -111.13671875 -7.33203125 C-101.00162006 -12.81910176 -91.45666389 -16.96367393 -80.13671875 -19.33203125 C-79.25113281 -19.52410156 -78.36554688 -19.71617187 -77.453125 -19.9140625 C-49.20097387 -23.47469874 -22.76717774 -16.9265319 0 0 Z " fill="#CBF3D7" transform="translate(223.13671875,181.33203125)"/>
<path d="M0 0 C3.92505124 1.72633545 6.23669406 4.1475391 9.12109375 7.24609375 C10.96285397 9.09705671 10.96285397 9.09705671 13.37109375 10.37109375 C16.59655829 12.36963567 19.02903354 14.89880684 21.625 17.625 C25.33232552 21.43258509 29.05618412 24.9684341 33.25 28.25 C39.10714212 32.87765456 44.25102676 38.13823723 49.43066406 43.50488281 C52.76790073 46.92824172 55.76555141 49.69311576 60 52 C61.33895632 53.66215268 62.67130142 55.32963607 64 57 C67.33131543 60.17268136 70.86664008 63.10298053 74.47265625 65.95703125 C80.71168923 70.90966567 86.28770707 76.20114343 91.85107422 81.89208984 C96.01473894 86.11574641 100.35015574 89.89556331 105.109375 93.44921875 C107 95 107 95 109 98 C109.763125 98.433125 110.52625 98.86625 111.3125 99.3125 C114.61374468 101.38537457 116.5140238 104.01682856 119 107 C121.49759982 108.69882448 121.49759982 108.69882448 124 110 C126.46357702 111.59407925 127.80116019 112.63673496 129.21875 115.2265625 C131.48445248 118.75430101 134.25585133 121.23210681 137.375 124 C138.50871755 125.01982811 139.64154205 126.04064994 140.7734375 127.0625 C141.31581055 127.55105469 141.85818359 128.03960937 142.41699219 128.54296875 C144.68262146 130.6282981 146.84312945 132.80273862 149 135 C148.67 135.66 148.34 136.32 148 137 C147.5153125 136.50371094 147.030625 136.00742187 146.53125 135.49609375 C140.80626274 129.69403935 134.85520521 124.28956616 128.5 119.1875 C127.675 118.465625 126.85 117.74375 126 117 C126 116.34 126 115.68 126 115 C125.41895508 114.74114014 124.83791016 114.48228027 124.23925781 114.21557617 C121.82528848 112.90515824 120.15002879 111.45153118 118.171875 109.55078125 C117.45386719 108.86693359 116.73585938 108.18308594 115.99609375 107.47851562 C114.88427734 106.40633789 114.88427734 106.40633789 113.75 105.3125 C108.89806637 100.66308936 104.01384055 96.0945671 98.93359375 91.69506836 C95.76050003 88.91340299 92.69646859 86.01782402 89.625 83.125 C84.62008506 78.43207975 79.58127376 73.7864293 74.46484375 69.21484375 C70.6298219 65.76879401 66.84438344 62.26919581 63.0546875 58.7734375 C60.77335781 56.68425189 58.45249019 54.64581133 56.1171875 52.6171875 C52.07042576 49.08838057 48.15126753 45.43818936 44.25 41.75 C32.37660568 30.54509857 32.37660568 30.54509857 20.1875 19.6875 C16.06491848 16.10874838 12.0639597 12.40036361 8.0625 8.6875 C7.38662842 8.06383545 6.71075684 7.4401709 6.0144043 6.79760742 C5.38187744 6.20826416 4.74935059 5.6189209 4.09765625 5.01171875 C3.52539307 4.48022217 2.95312988 3.94872559 2.36352539 3.40112305 C1 2 1 2 0 0 Z " fill="#CCF3DE" transform="translate(98,334)"/>
<path d="M0 0 C0 0.66 0 1.32 0 2 C-6.625 5.875 -6.625 5.875 -10 7 C-10 7.66 -10 8.32 -10 9 C-11.6796875 10.62109375 -11.6796875 10.62109375 -13.875 12.4375 C-16.46193722 14.58400884 -18.11184374 16.16776562 -20 19 C-20.99 19.33 -21.98 19.66 -23 20 C-24.31687603 21.95700151 -24.31687603 21.95700151 -25.4375 24.3125 C-27.2869385 27.8231108 -29.09004883 30.27778762 -32 33 C-35.77573126 37.95564728 -37.82813847 43.2264681 -40 49 C-40.268125 49.63679688 -40.53625 50.27359375 -40.8125 50.9296875 C-48.35909806 69.24590988 -46.86752145 89.67766756 -45 109 C-44.34 109 -43.68 109 -43 109 C-42.70867187 110.02738281 -42.41734375 111.05476563 -42.1171875 112.11328125 C-39.87241835 119.78484247 -37.45698716 126.75676293 -33.33203125 133.66796875 C-32 136 -32 136 -31.07421875 138.67578125 C-29.76190931 141.51514167 -28.77797686 141.75253115 -26 143 C-24.3671875 144.8046875 -24.3671875 144.8046875 -22.875 146.875 C-22.12863281 147.89207031 -22.12863281 147.89207031 -21.3671875 148.9296875 C-20.06764939 150.8975595 -19.00360373 152.86853684 -18 155 C-17.34 155 -16.68 155 -16 155 C-15.01 156.98 -15.01 156.98 -14 159 C-26.79988116 153.82051321 -36.47136157 135.25873864 -41.67382812 123.19482422 C-51.71530504 98.44425293 -51.7729749 70.9765611 -41.875 46.1875 C-36.14577423 32.76036067 -17.11236949 0 0 0 Z " fill="#D7F6DA" transform="translate(112,175)"/>
<path d="M0 0 C4.47096044 3.29172654 8.66355892 6.86958347 12.75 10.625 C12.42 11.285 12.09 11.945 11.75 12.625 C11.14414062 12.03332031 10.53828125 11.44164063 9.9140625 10.83203125 C4.1965943 5.44001893 -1.11881289 1.82289172 -8.25 -1.375 C-9.91775214 -2.26881091 -11.58441984 -3.16464819 -13.25 -4.0625 C-24.92129555 -9.7724569 -41.68949528 -10.86267705 -54.125 -6.875 C-54.85203125 -6.60042969 -55.5790625 -6.32585938 -56.328125 -6.04296875 C-58.99417815 -5.11635272 -61.46036874 -5.15476595 -64.25 -5.375 C-64.25 -4.715 -64.25 -4.055 -64.25 -3.375 C-65.09884766 -3.21064453 -65.09884766 -3.21064453 -65.96484375 -3.04296875 C-66.69832031 -2.88441406 -67.43179688 -2.72585937 -68.1875 -2.5625 C-68.91839844 -2.41167969 -69.64929688 -2.26085938 -70.40234375 -2.10546875 C-71.31693359 -1.74388672 -71.31693359 -1.74388672 -72.25 -1.375 C-72.58 -0.385 -72.91 0.605 -73.25 1.625 C-74.178125 2.07875 -75.10625 2.5325 -76.0625 3 C-79.52253508 4.76393945 -80.94154852 6.57454626 -83.25 9.625 C-83.91 9.625 -84.57 9.625 -85.25 9.625 C-85.4975 10.223125 -85.745 10.82125 -86 11.4375 C-87.42002708 13.92254739 -88.97705959 14.93862486 -91.25 16.625 C-91.58 17.615 -91.91 18.605 -92.25 19.625 C-93.25 20.625 -94.25 21.625 -95.25 22.625 C-98.0223744 26.668046 -99.73623323 30.99006462 -101.25 35.625 C-101.52070313 36.43195313 -101.79140625 37.23890625 -102.0703125 38.0703125 C-104.99478565 48.03623558 -104.98773632 58.31412519 -105.25 68.625 C-105.58 68.625 -105.91 68.625 -106.25 68.625 C-108.6057677 47.28117696 -104.10889199 29.18930099 -90.56298828 12.19677734 C-80.63773766 0.31526684 -67.10021496 -6.75947311 -52.25 -10.375 C-51.47914063 -10.56707031 -50.70828125 -10.75914063 -49.9140625 -10.95703125 C-32.52804 -13.68475032 -14.56722092 -9.934221 0 0 Z " fill="#CBF2DF" transform="translate(288.25,38.375)"/>
<path d="M0 0 C2.75361799 2.24368873 5.35773318 4.554811 7.9140625 7.01953125 C9.94953141 9.04137414 9.94953141 9.04137414 12.2734375 10.63671875 C12.84320313 11.08660156 13.41296875 11.53648437 14 12 C14 12.66 14 13.32 14 14 C14.66 14 15.32 14 16 14 C27.04479365 26.00521048 35.27028314 41.13928486 39 57 C39.29648437 58.22976562 39.59296875 59.45953125 39.8984375 60.7265625 C42.15093273 70.8483116 42.32293705 80.66601446 42 91 C41.67 91 41.34 91 41 91 C40.97421875 90.00484375 40.9484375 89.0096875 40.921875 87.984375 C40.61279247 79.56570123 39.7228528 71.45283946 38.0625 63.1875 C37.89266602 62.33446289 37.72283203 61.48142578 37.54785156 60.60253906 C36.65508646 56.15531146 36.65508646 56.15531146 34.93530273 51.98950195 C34 50 34 50 34 46 C33.34 46 32.68 46 32 46 C31.18395001 44.0848421 30.37229368 42.16781166 29.5625 40.25 C29.11003906 39.18265625 28.65757812 38.1153125 28.19140625 37.015625 C27.26020447 34.6586159 26.5215928 32.47007165 26 30 C25.34 30 24.68 30 24 30 C22.8946653 28.37485926 21.86646119 26.69701265 20.875 25 C15.57744821 16.4693032 8.86683441 10.68245614 0.90625 4.6640625 C0.2771875 4.11492187 -0.351875 3.56578125 -1 3 C-1 2.34 -1 1.68 -1 1 C-2.258125 0.62875 -3.51625 0.2575 -4.8125 -0.125 C-8.46196835 -1.32459376 -11.52764832 -2.8322334 -14.8125 -4.8125 C-33.89864809 -15.24208912 -53.82823105 -15.02581024 -75 -15 C-75 -15.33 -75 -15.66 -75 -16 C-48.73645825 -20.52316552 -22.0625501 -14.85186299 0 0 Z " fill="#BEECD4" transform="translate(395,178)"/>
<path d="M0 0 C0.99 0.495 0.99 0.495 2 1 C0.91681133 4.24956601 0.29783983 4.83392636 -2.25 6.9375 C-6.05015727 10.15878027 -9.7265373 13.48474603 -13.375 16.875 C-17.20389006 20.42503685 -21.04579404 23.95612218 -24.9375 27.4375 C-29.04672227 31.1177007 -33.09050552 34.86345229 -37.125 38.625 C-41.44587732 42.65043272 -45.77092932 46.65920942 -50.26171875 50.49609375 C-51.49706159 51.56487351 -52.70565556 52.66491668 -53.89453125 53.78515625 C-54.50683594 54.35105469 -55.11914062 54.91695313 -55.75 55.5 C-56.28109375 56.0053125 -56.8121875 56.510625 -57.359375 57.03125 C-59 58 -59 58 -61.11328125 57.79296875 C-63.92121306 56.6128235 -64.53721311 54.6330164 -66 52 C-67.60492174 49.9406727 -69.29623118 47.98005566 -71 46 C-68.07368315 47.19220316 -66.80035559 48.23201918 -64.6875 50.6875 C-62.13232251 53.37393291 -62.13232251 53.37393291 -58.375 53.125 C-54.88276824 52.32978941 -54.88276824 52.32978941 -53.3125 49.625 C-52.879375 48.75875 -52.44625 47.8925 -52 47 C-48.5862069 44 -48.5862069 44 -46 44 C-46 43.34 -46 42.68 -46 42 C-45.34 42 -44.68 42 -44 42 C-43.67 41.01 -43.34 40.02 -43 39 C-42.4225 38.731875 -41.845 38.46375 -41.25 38.1875 C-38.63675249 36.80828604 -37.30038398 35.00772187 -35.48828125 32.71875 C-31.64138715 28.27614264 -26.83629363 24.32809396 -22 21 C-21.34 21 -20.68 21 -20 21 C-19.7525 20.38125 -19.505 19.7625 -19.25 19.125 C-17.76259631 16.59641373 -16.56321991 16.28160996 -14 15 C-13.67 14.34 -13.34 13.68 -13 13 C-11.75491604 10.50983207 -10.53283204 10.01313282 -8 9 C-8 8.34 -8 7.68 -8 7 C-6.25 5.2734375 -6.25 5.2734375 -4 3.375 C-3.2575 2.74335938 -2.515 2.11171875 -1.75 1.4609375 C-0.88375 0.73777344 -0.88375 0.73777344 0 0 Z " fill="#ADE4C9" transform="translate(310,415)"/>
<path d="M0 0 C0.495 1.485 0.495 1.485 1 3 C-3.10839064 1.54997977 -6.50344613 -0.3979134 -10 -3 C-10 -3.66 -10 -4.32 -10 -5 C-11.08667969 -5.29003906 -11.08667969 -5.29003906 -12.1953125 -5.5859375 C-17.18045615 -6.92860286 -22.12594691 -8.28749486 -27 -10 C-27 -10.66 -27 -11.32 -27 -12 C-37.33945981 -13.60403105 -47.45842546 -14.44094346 -57.9375 -14.4375 C-58.63655457 -14.4385675 -59.33560913 -14.43963501 -60.05584717 -14.44073486 C-70.84798301 -14.41700098 -80.05362336 -13.48743504 -90 -9 C-91.32703871 -8.42975704 -92.65520225 -7.8621259 -93.984375 -7.296875 C-96.4466171 -6.24822097 -98.8741698 -5.16296932 -101.3046875 -4.0390625 C-102.19414063 -3.69617188 -103.08359375 -3.35328125 -104 -3 C-104.66 -3.33 -105.32 -3.66 -106 -4 C-95.86490131 -9.48707051 -86.31994514 -13.63164268 -75 -16 C-74.11441406 -16.19207031 -73.22882813 -16.38414062 -72.31640625 -16.58203125 C-47.41495697 -19.72037645 -20.29935338 -15.63283536 0 0 Z " fill="#C6EFCB" transform="translate(218,178)"/>
<path d="M0 0 C10.0880798 8.90124688 16.22890449 23.30648705 17.19042969 36.64086914 C17.26713983 39.43007998 17.2731224 42.20989658 17.25 45 C17.25773437 45.93328125 17.26546875 46.8665625 17.2734375 47.828125 C17.25662802 53.84591908 16.50468022 59.17234964 15 65 C14.34 65 13.68 65 13 65 C12.505 65.99 12.505 65.99 12 67 C12.16242188 65.73027344 12.32484375 64.46054688 12.4921875 63.15234375 C13.06867577 57.94459727 13.14797792 52.79763636 13.125 47.5625 C13.12886719 46.68529297 13.13273437 45.80808594 13.13671875 44.90429688 C13.11316621 28.9238974 10.66431126 17.7684176 1.625 4.5 C0 2 0 2 0 0 Z " fill="#8ACDAA" transform="translate(301,51)"/>
<path d="M0 0 C4.26767247 0.51541938 6.98661613 3.17950242 10.125 5.875 C10.66253906 6.32230469 11.20007813 6.76960938 11.75390625 7.23046875 C14.27741526 9.36380929 16.15438137 11.23157205 18 14 C18.763125 14.433125 19.52625 14.86625 20.3125 15.3125 C23.61374468 17.38537457 25.5140238 20.01682856 28 23 C30.49759982 24.69882448 30.49759982 24.69882448 33 26 C35.46357702 27.59407925 36.80116019 28.63673496 38.21875 31.2265625 C40.48445248 34.75430101 43.25585133 37.23210681 46.375 40 C47.50871755 41.01982811 48.64154205 42.04064994 49.7734375 43.0625 C50.31581055 43.55105469 50.85818359 44.03960937 51.41699219 44.54296875 C53.68262146 46.6282981 55.84312945 48.80273862 58 51 C57.505 51.99 57.505 51.99 57 53 C56.5153125 52.50371094 56.030625 52.00742187 55.53125 51.49609375 C49.80626274 45.69403935 43.85520521 40.28956616 37.5 35.1875 C36.675 34.465625 35.85 33.74375 35 33 C35 32.34 35 31.68 35 31 C34.41895508 30.74114014 33.83791016 30.48228027 33.23925781 30.21557617 C30.82528848 28.90515824 29.15002879 27.45153118 27.171875 25.55078125 C26.45386719 24.86693359 25.73585937 24.18308594 24.99609375 23.47851562 C24.25488281 22.76373047 23.51367188 22.04894531 22.75 21.3125 C16.1838891 15.020463 9.53863172 8.88770037 2.5 3.125 C1.675 2.42375 0.85 1.7225 0 1 C0 0.67 0 0.34 0 0 Z " fill="#C8EFDA" transform="translate(189,418)"/>
<path d="M0 0 C1.485 0.99 1.485 0.99 3 2 C3 2.66 3 3.32 3 4 C3.66 4 4.32 4 5 4 C16.04479365 16.00521048 24.27028314 31.13928486 28 47 C28.29648437 48.22976562 28.59296875 49.45953125 28.8984375 50.7265625 C31.15093273 60.8483116 31.32293705 70.66601446 31 81 C30.67 81 30.34 81 30 81 C29.97421875 80.00484375 29.9484375 79.0096875 29.921875 77.984375 C29.61279247 69.56570123 28.7228528 61.45283946 27.0625 53.1875 C26.89266602 52.33446289 26.72283203 51.48142578 26.54785156 50.60253906 C25.65508646 46.15531146 25.65508646 46.15531146 23.93530273 41.98950195 C23 40 23 40 23 36 C22.34 36 21.68 36 21 36 C20.18395001 34.0848421 19.37229368 32.16781166 18.5625 30.25 C18.11003906 29.18265625 17.65757812 28.1153125 17.19140625 27.015625 C16.26020447 24.6586159 15.5215928 22.47007165 15 20 C14.34 20 13.68 20 13 20 C11.85071804 18.33531839 10.78050179 16.61571248 9.75 14.875 C7.59810508 11.36520075 5.57159023 8.31610819 2.5625 5.5 C1.716875 4.675 0.87125 3.85 0 3 C0 2.01 0 1.02 0 0 Z " fill="#B2E6CC" transform="translate(406,188)"/>
<path d="M0 0 C2.08249783 0.00313085 4.1635296 -0.02025113 6.24584961 -0.0456543 C15.69596515 -0.08800517 24.34865845 1.11975554 33.54858398 3.31567383 C30.40757997 4.28816833 28.02507557 4.28869357 24.77514648 3.88598633 C18.16518246 3.20234855 11.597231 3.16433307 4.95629883 3.18530273 C2.89193691 3.19075745 0.82778387 3.18527404 -1.23657227 3.17895508 C-2.53723633 3.18024414 -3.83790039 3.1815332 -5.17797852 3.18286133 C-6.95035889 3.18455322 -6.95035889 3.18455322 -8.75854492 3.1862793 C-11.36912258 3.00926239 -11.36912258 3.00926239 -12.45141602 4.31567383 C-15.28461542 4.88948637 -18.13061364 5.3452322 -20.98266602 5.81567383 C-23.38557579 6.0656089 -23.38557579 6.0656089 -24.45141602 7.31567383 C-25.9661105 7.54760247 -27.48896163 7.72782621 -29.01391602 7.87817383 C-30.25334961 8.00385742 -30.25334961 8.00385742 -31.51782227 8.13208008 C-32.47495117 8.22295898 -32.47495117 8.22295898 -33.45141602 8.31567383 C-32.0265527 5.4659472 -30.35671947 5.36073254 -27.38891602 4.31567383 C-26.46981445 3.98567383 -25.55071289 3.65567383 -24.60375977 3.31567383 C-23.56348633 2.98567383 -22.52321289 2.65567383 -21.45141602 2.31567383 C-20.32993164 1.95086914 -19.20844727 1.58606445 -18.05297852 1.21020508 C-12.13974428 -0.21816654 -6.04750965 -0.01893133 0 0 Z " fill="#6DBF77" transform="translate(157.451416015625,162.684326171875)"/>
<path d="M0 0 C0 0.66 0 1.32 0 2 C-1.32 2 -2.64 2 -4 2 C-4.226875 2.5775 -4.45375 3.155 -4.6875 3.75 C-6.37267277 6.6388676 -8.22687065 8.1512471 -11 10 C-12.32 10 -13.64 10 -15 10 C-15.309375 10.8353125 -15.309375 10.8353125 -15.625 11.6875 C-17.57683032 14.97012371 -19.94230994 16.70673246 -23 19 C-23.66 19 -24.32 19 -25 19 C-25.144375 19.61875 -25.28875 20.2375 -25.4375 20.875 C-26 23 -26 23 -27 25 C-27.66 25 -28.32 25 -29 25 C-29.28875 25.9075 -29.5775 26.815 -29.875 27.75 C-30.76531776 30.32202908 -31.71494413 32.61346766 -33 35 C-33.66 35 -34.32 35 -35 35 C-34.52583422 30.02125936 -33.0900669 26.93281242 -30 23 C-29.34 23 -28.68 23 -28 23 C-27.938125 22.4225 -27.87625 21.845 -27.8125 21.25 C-26.66958051 18.08499218 -24.65236603 17.07576472 -22 15 C-20.8355379 13.66181862 -19.69096669 12.30617246 -18.5625 10.9375 C-15.67949216 7.54572607 -13.1252411 5.78135411 -9 4 C-7.29078411 2.4587688 -7.29078411 2.4587688 -6 1 C-4 0 -4 0 0 0 Z " fill="#28985E" transform="translate(224,35)"/>
<path d="M0 0 C1.38730869 4.16192607 0.05703094 5.61876452 -1.875 9.5 C-7.73837752 21.00892982 -16.21707609 30.81138406 -27 38 C-29.6875 38.125 -29.6875 38.125 -32 38 C-28.25 35 -28.25 35 -26 35 C-26 34.34 -26 33.68 -26 33 C-24.36395804 31.62926214 -22.69321939 30.29944744 -21 29 C-19.97895449 28.02149805 -18.9793879 27.02019573 -18 26 C-17.22914063 25.26394531 -16.45828125 24.52789062 -15.6640625 23.76953125 C-9.72505641 17.59540321 -4.93076321 10.05959882 -2 2 C-1.34 2 -0.68 2 0 2 C0 1.34 0 0.68 0 0 Z " fill="#B8E8CF" transform="translate(314,116)"/>
<path d="M0 0 C-3.14085459 1.69352492 -6.2806007 2.76593616 -9.6875 3.8125 C-15.95393103 5.86040341 -22.26822136 8.26822136 -27 13 C-27.99 13 -28.98 13 -30 13 C-30 13.66 -30 14.32 -30 15 C-33.51858133 18.25494123 -37.15409462 20.55946315 -42 21 C-41.67750447 18.1038637 -41.20809729 17.17100678 -38.91796875 15.2890625 C-12.82348131 -0.61401568 -12.82348131 -0.61401568 0 0 Z " fill="#98D5B5" transform="translate(320,163)"/>
<path d="M0 0 C0.556875 0.46019531 1.11375 0.92039062 1.6875 1.39453125 C0.02138095 1.43725225 -1.64632885 1.43516957 -3.3125 1.39453125 C-3.8075 0.89953125 -3.8075 0.89953125 -4.3125 0.39453125 C-11.84056844 -1.37753984 -19.42115152 -1.83280588 -27.125 -1.91796875 C-28.30618408 -1.94419312 -28.30618408 -1.94419312 -29.51123047 -1.97094727 C-35.11153479 -1.96564506 -39.13994611 -0.72327752 -44.3125 1.39453125 C-47.8125 1.58203125 -47.8125 1.58203125 -50.3125 1.39453125 C-50.3125 0.73453125 -50.3125 0.07453125 -50.3125 -0.60546875 C-35.67510065 -5.18476687 -13.58549164 -9.43181936 0 0 Z " fill="#379E68" transform="translate(274.3125,33.60546875)"/>
<path d="M0 0 C6.86545667 12.69612996 4.22306143 34.16268023 0.4230957 47.52929688 C-0.02913633 49.02639642 -0.51069325 50.51460451 -1 52 C-1.33 52 -1.66 52 -2 52 C-1.85970581 49.8537974 -1.71261836 47.70803782 -1.5625 45.5625 C-1.48128906 44.36753906 -1.40007812 43.17257812 -1.31640625 41.94140625 C-1 39 -1 39 0 38 C0.08861992 35.1883662 0.11522355 32.40141745 0.09765625 29.58984375 C0.0962413 28.74780899 0.09482635 27.90577423 0.09336853 27.03822327 C0.08775263 24.33794665 0.07519748 21.63775172 0.0625 18.9375 C0.05748705 17.11132932 0.05292379 15.28515734 0.04882812 13.45898438 C0.03777804 8.97262458 0.02050279 4.48632616 0 0 Z " fill="#50AC7C" transform="translate(432,236)"/>
<path d="M0 0 C1.10859375 0.00322266 2.2171875 0.00644531 3.359375 0.00976562 C4.50148437 0.01814453 5.64359375 0.02652344 6.8203125 0.03515625 C8.56828125 0.04192383 8.56828125 0.04192383 10.3515625 0.04882812 C13.21619895 0.06056844 16.08072883 0.07699055 18.9453125 0.09765625 C18.9453125 0.42765625 18.9453125 0.75765625 18.9453125 1.09765625 C18.07132813 1.11953003 18.07132813 1.11953003 17.1796875 1.1418457 C0.00911716 1.61936844 -15.25230661 2.79909898 -31.0546875 10.09765625 C-32.92370168 10.9033529 -34.79843385 11.69596724 -36.6796875 12.47265625 C-37.87464844 12.97925781 -37.87464844 12.97925781 -39.09375 13.49609375 C-41.0546875 14.09765625 -41.0546875 14.09765625 -43.0546875 13.09765625 C-29.48681943 5.75210875 -15.74767497 -0.08117358 0 0 Z " fill="#E0FBE4" transform="translate(155.0546875,160.90234375)"/>
<path d="M0 0 C0 3 0 3 -1.46875 4.796875 C-2.1390625 5.44140625 -2.809375 6.0859375 -3.5 6.75 C-4.60601562 7.81541016 -4.60601562 7.81541016 -5.734375 8.90234375 C-8.34774816 11.32196684 -11.00622501 13.6754019 -13.7109375 15.9921875 C-15.53889115 17.59554616 -17.32561853 19.22304172 -19.1015625 20.8828125 C-19.64200195 21.38643311 -20.18244141 21.89005371 -20.73925781 22.40893555 C-21.81784627 23.41685231 -22.89281409 24.42865955 -23.96386719 25.44458008 C-27.77871145 29 -27.77871145 29 -30 29 C-30 29.66 -30 30.32 -30 31 C-30.66 30.67 -31.32 30.34 -32 30 C-31.360625 29.401875 -30.72125 28.80375 -30.0625 28.1875 C-27.79689611 26.09189663 -27.79689611 26.09189663 -27 23 C-25.546875 21.7890625 -25.546875 21.7890625 -23.75 20.625 C-21.28867781 18.95895164 -19.4462651 17.4462651 -17.3125 15.3125 C-15.23207198 13.23207198 -13.69122331 12.09642431 -11 11 C-11 10.34 -11 9.68 -11 9 C-9.21895282 7.39821407 -7.37462722 5.86618074 -5.5 4.375 C-4.4790625 3.55773437 -3.458125 2.74046875 -2.40625 1.8984375 C-1.6121875 1.27195312 -0.818125 0.64546875 0 0 Z " fill="#BAE8D0" transform="translate(411,324)"/>
<path d="M0 0 C0 3.48214099 -1.18780635 5.13167974 -2.921875 8.0625 C-4.69663287 11.25191994 -5.88588094 14.53117524 -7 18 C-7.26941406 18.804375 -7.53882813 19.60875 -7.81640625 20.4375 C-10.74702775 30.40444462 -10.73767727 40.68680365 -11 51 C-11.33 51 -11.66 51 -12 51 C-14.0206939 32.69202637 -11.85903914 14.90850635 0 0 Z " fill="#D0F2E0" transform="translate(194,56)"/>
<path d="M0 0 C0.66 0.33 1.32 0.66 2 1 C-0.1501073 5.4345963 -3.16498591 8.11179887 -6.875 11.21484375 C-8.26064666 12.37888883 -9.61725581 13.57867732 -10.9375 14.81640625 C-11.535625 15.37199219 -12.13375 15.92757813 -12.75 16.5 C-13.28109375 17.0053125 -13.8121875 17.510625 -14.359375 18.03125 C-16 19 -16 19 -18.11328125 18.79296875 C-20.92121306 17.6128235 -21.53721311 15.6330164 -23 13 C-24.60492174 10.9406727 -26.29623118 8.98005566 -28 7 C-25.07368315 8.19220316 -23.80035559 9.23201918 -21.6875 11.6875 C-19.13232251 14.37393291 -19.13232251 14.37393291 -15.375 14.125 C-11.88276824 13.32978941 -11.88276824 13.32978941 -10.3125 10.625 C-9.879375 9.75875 -9.44625 8.8925 -9 8 C-5.5862069 5 -5.5862069 5 -3 5 C-3 4.34 -3 3.68 -3 3 C-2.34 3 -1.68 3 -1 3 C-0.67 2.01 -0.34 1.02 0 0 Z " fill="#9FD8BB" transform="translate(267,454)"/>
<path d="M0 0 C0.99 0.495 0.99 0.495 2 1 C2.53400419 2.8338056 2.97751966 4.69434239 3.375 6.5625 C5.05559719 13.70079413 7.54055149 19.20271694 12 25 C12 25.66 12 26.32 12 27 C12.99 27 13.98 27 15 27 C15.69710731 28.28650706 16.38242876 29.57940665 17.0625 30.875 C17.44535156 31.59429687 17.82820313 32.31359375 18.22265625 33.0546875 C18.47917969 33.69664062 18.73570312 34.33859375 19 35 C18.67 35.66 18.34 36.32 18 37 C9.20907253 28.15412923 0.48591955 15.23247149 -0.1875 2.4375 C-0.125625 1.633125 -0.06375 0.82875 0 0 Z " fill="#D6F5E5" transform="translate(183,107)"/>
<path d="M0 0 C0.33 0.66 0.66 1.32 1 2 C-4.71427844 9.02212385 -11.22595804 15.02920413 -18 21 C-18.52835449 21.48807129 -19.05670898 21.97614258 -19.60107422 22.47900391 C-21.18359375 23.89453125 -21.18359375 23.89453125 -24 26 C-24.99 25.67 -25.98 25.34 -27 25 C-13.14500485 12.0595902 -13.14500485 12.0595902 -6.62109375 6.43359375 C-4.30684173 4.38701426 -2.15016265 2.21735523 0 0 Z " fill="#B4E7CC" transform="translate(379,352)"/>
<path d="M0 0 C0.99 0 1.98 0 3 0 C2.77345588 3.85125009 1.65747734 5.56502133 -1.0625 8.125 C-1.88427734 8.84042969 -1.88427734 8.84042969 -2.72265625 9.5703125 C-4.33312934 11.05332887 -4.33312934 11.05332887 -4 14 C-5.32 14 -6.64 14 -8 14 C-8.0825 14.78375 -8.165 15.5675 -8.25 16.375 C-9 19 -9 19 -11.0625 20.3125 C-11.701875 20.539375 -12.34125 20.76625 -13 21 C-13 22.65 -13 24.3 -13 26 C-13.66 26 -14.32 26 -15 26 C-13.6890711 19.83863419 -11.05214647 14.85596901 -7 10 C-6.34 10 -5.68 10 -5 10 C-4.731875 9.0925 -4.46375 8.185 -4.1875 7.25 C-3.09365038 4.25630631 -2.19576514 2.28359575 0 0 Z " fill="#58B765" transform="translate(89,194)"/>
<path d="M0 0 C1.08655884 -0.00287018 1.08655884 -0.00287018 2.19506836 -0.00579834 C3.71435904 -0.00714886 5.23366171 -0.00353239 6.75292969 0.00488281 C9.05690839 0.01559899 11.36010758 0.00494907 13.6640625 -0.0078125 C15.15104336 -0.0064907 16.63802374 -0.00392789 18.125 0 C18.80232178 -0.00404846 19.47964355 -0.00809692 20.17749023 -0.01226807 C25.11685571 0.03532525 29.34214113 0.94081971 34.0625 2.265625 C34.0625 2.595625 34.0625 2.925625 34.0625 3.265625 C32.45842672 3.29271067 30.8542215 3.31205983 29.25 3.328125 C27.91001953 3.34552734 27.91001953 3.34552734 26.54296875 3.36328125 C24.0625 3.265625 24.0625 3.265625 21.0625 2.265625 C16.96226303 2.03115686 12.85622828 2.08044621 8.75 2.078125 C7.62142578 2.06587891 6.49285156 2.05363281 5.33007812 2.04101562 C4.23501953 2.03908203 3.13996094 2.03714844 2.01171875 2.03515625 C1.01487061 2.03104736 0.01802246 2.02693848 -1.0090332 2.02270508 C-4.24306126 2.29097168 -6.89366611 3.17083057 -9.9375 4.265625 C-12.64811275 4.49226486 -15.20898292 4.3597118 -17.9375 4.265625 C-13.45209245 -0.21978255 -6.01966454 -0.03598051 0 0 Z " fill="#46A372" transform="translate(327.9375,162.734375)"/>
<path d="M0 0 C0 3 0 3 -1 5 C-1.66 5 -2.32 5 -3 5 C-3.0825 5.515625 -3.165 6.03125 -3.25 6.5625 C-5.28728677 13.18368199 -8.60501251 16.81613215 -14 21 C-15.71474483 22.62520202 -17.35330907 24.30487699 -19 26 C-19 24.02 -19 22.04 -19 20 C-18.01 20.33 -17.02 20.66 -16 21 C-16 20.34 -16 19.68 -16 19 C-15.34 19 -14.68 19 -14 19 C-14 18.01 -14 17.02 -14 16 C-13.34 16 -12.68 16 -12 16 C-12 15.34 -12 14.68 -12 14 C-11.01 14 -10.02 14 -9 14 C-9 13.01 -9 12.02 -9 11 C-8.34 11 -7.68 11 -7 11 C-7 10.01 -7 9.02 -7 8 C-6.34 8 -5.68 8 -5 8 C-4.855625 7.21625 -4.71125 6.4325 -4.5625 5.625 C-4 3 -4 3 -3 1 C-2.01 0.67 -1.02 0.34 0 0 Z " fill="#309D62" transform="translate(423,304)"/>
<path d="M0 0 C-1.62017842 1.33918806 -3.24629343 2.6711969 -4.875 4 C-5.77992188 4.7425 -6.68484375 5.485 -7.6171875 6.25 C-10 8 -10 8 -12 8 C-12.061875 8.5775 -12.12375 9.155 -12.1875 9.75 C-13.35107133 12.97219753 -15.16926179 14.15672861 -18 16 C-19.32 16 -20.64 16 -22 16 C-22 14 -22 14 -20.5390625 12.4921875 C-19.59160156 11.69167969 -19.59160156 11.69167969 -18.625 10.875 C-17.99851562 10.33617187 -17.37203125 9.79734375 -16.7265625 9.2421875 C-15 8 -15 8 -13 8 C-12.67 7.01 -12.34 6.02 -12 5 C-4.77906977 -1.59302326 -4.77906977 -1.59302326 0 0 Z " fill="#36A068" transform="translate(282,184)"/>
<path d="M0 0 C1.65 0 3.3 0 5 0 C-5.52327027 9.20786149 -21.88445344 8.56228166 -35 8 C-37.0063979 7.70763279 -39.01035834 7.39043204 -41 7 C-41 6.67 -41 6.34 -41 6 C-39.329375 6.03480469 -39.329375 6.03480469 -37.625 6.0703125 C-27.23713617 6.21684618 -17.26753635 5.56670854 -7 4 C-7 3.34 -7 2.68 -7 2 C-4.69 2 -2.38 2 0 2 C0 1.34 0 0.68 0 0 Z " fill="#369E69" transform="translate(277,154)"/>
<path d="M0 0 C12.50721289 1.84532649 21.08859372 9.47520571 30 18 C29.67 18.66 29.34 19.32 29 20 C27.16086305 18.5489926 25.3288247 17.08898341 23.5 15.625 C22.4790625 14.81289062 21.458125 14.00078125 20.40625 13.1640625 C19.6121875 12.44992188 18.818125 11.73578125 18 11 C18 10.34 18 9.68 18 9 C17.45472656 8.84144531 16.90945313 8.68289062 16.34765625 8.51953125 C10.43878753 6.69131717 5.30135828 4.17078876 0 1 C0 0.67 0 0.34 0 0 Z " fill="#B0E4C9" transform="translate(376,170)"/>
<path d="M0 0 C8.13301237 8.13301237 9.11918736 27.28992352 9.20214844 38.53442383 C9.18140773 42.02543055 9.10904382 45.5105979 9 49 C8.67 49 8.34 49 8 49 C7.97421875 48.00484375 7.9484375 47.0096875 7.921875 45.984375 C7.61700157 37.65688843 6.75918887 29.61457641 5.125 21.4375 C4.96354492 20.61797852 4.80208984 19.79845703 4.63574219 18.95410156 C3.81537461 15.04660316 2.82923387 11.37883941 1.3671875 7.66015625 C0 4 0 4 0 0 Z " fill="#D3F5E7" transform="translate(428,220)"/>
<path d="M0 0 C0.66 0.33 1.32 0.66 2 1 C0.89822514 4.30532457 0.10316567 5.01303027 -2.5 7.1875 C-3.2115625 7.79078125 -3.923125 8.3940625 -4.65625 9.015625 C-5.81640625 9.99789063 -5.81640625 9.99789063 -7 11 C-8.67062848 12.47469057 -10.33738832 13.95377691 -12 15.4375 C-13.1446875 16.45650391 -13.1446875 16.45650391 -14.3125 17.49609375 C-14.869375 17.99238281 -15.42625 18.48867188 -16 19 C-16.99 18.67 -17.98 18.34 -19 18 C-17.625 16.5 -17.625 16.5 -16 15 C-15.34 15 -14.68 15 -14 15 C-13.7525 14.38125 -13.505 13.7625 -13.25 13.125 C-11.79371361 10.64931313 -10.62187494 10.04874998 -8 9 C-8 8.34 -8 7.68 -8 7 C-6.25 5.2734375 -6.25 5.2734375 -4 3.375 C-3.2575 2.74335938 -2.515 2.11171875 -1.75 1.4609375 C-0.88375 0.73777344 -0.88375 0.73777344 0 0 Z " fill="#A3DBBD" transform="translate(310,415)"/>
<path d="M0 0 C0 2 0 2 -1.64453125 3.69140625 C-2.35996094 4.30886719 -3.07539063 4.92632812 -3.8125 5.5625 C-4.87404297 6.49255859 -4.87404297 6.49255859 -5.95703125 7.44140625 C-8 9 -8 9 -11 10 C-11 10.66 -11 11.32 -11 12 C-12.65002828 13.35386936 -14.3174387 14.68678142 -16 16 C-16.33 16.66 -16.66 17.32 -17 18 C-17.66 18 -18.32 18 -19 18 C-19 18.66 -19 19.32 -19 20 C-19.99 20.33 -20.98 20.66 -22 21 C-22 20.34 -22 19.68 -22 19 C-21.34 19 -20.68 19 -20 19 C-19.85498047 18.1028125 -19.85498047 18.1028125 -19.70703125 17.1875 C-18.8517085 14.54119755 -17.85199529 13.70564083 -15.6875 12 C-12.96317876 9.78718397 -10.44286139 7.52709799 -8 5 C-3.14285714 0 -3.14285714 0 0 0 Z " fill="#32B253" transform="translate(243,214)"/>
<path d="M0 0 C7.92707525 6.72078119 15.74378588 13.55283288 23 21 C22.67 21.66 22.34 22.32 22 23 C21.27296875 22.25556641 21.27296875 22.25556641 20.53125 21.49609375 C15.32799247 16.22279237 9.99646881 11.13765317 4.1640625 6.55859375 C2.72884403 5.4299595 1.35713122 4.2214181 0 3 C0 2.01 0 1.02 0 0 Z " fill="#CEF4DF" transform="translate(224,448)"/>
<path d="M0 0 C0.66 0.33 1.32 0.66 2 1 C-1.81071969 6.37784998 -4.71783016 10.45721697 -11 13 C-11.33 13.66 -11.66 14.32 -12 15 C-12.66 15 -13.32 15 -14 15 C-12.58226538 11.45566346 -11.32387762 10.66193881 -8 9 C-6.73195434 6.9664052 -6.73195434 6.9664052 -6 5 C-5.34 5 -4.68 5 -4 5 C-4 4.34 -4 3.68 -4 3 C-2 1.375 -2 1.375 0 0 Z " fill="#66BB72" transform="translate(106,179)"/>
<path d="M0 0 C3.08672549 1.36390196 4.18078756 2.21787218 6.4375 4.9375 C8.88420902 7.86161565 10.70011792 9.22314042 14 11 C15.34631825 11.98244845 16.68441297 12.97676564 18 14 C17.67 14.66 17.34 15.32 17 16 C9.21625183 14.65738842 4.28239461 6.03927445 0 0 Z " fill="#98D4B5" transform="translate(208,433)"/>
<path d="M0 0 C0.33 0.66 0.66 1.32 1 2 C0.06553465 4.03144641 -0.93224776 6.03533587 -2 8 C-2.66 8 -3.32 8 -4 8 C-4.28875 8.9075 -4.5775 9.815 -4.875 10.75 C-5.76531776 13.32202908 -6.71494413 15.61346766 -8 18 C-8.66 18 -9.32 18 -10 18 C-9.52583422 13.02125936 -8.0900669 9.93281242 -5 6 C-4.34 6 -3.68 6 -3 6 C-2.814375 5.071875 -2.814375 5.071875 -2.625 4.125 C-2 2 -2 2 0 0 Z " fill="#46A875" transform="translate(199,52)"/>
<path d="M0 0 C6.56509975 5.79273508 11.14157167 13.76100068 14 22 C13.67 22.99 13.34 23.98 13 25 C12.48050781 23.92621094 11.96101563 22.85242188 11.42578125 21.74609375 C10.7216835 20.30973435 10.01723775 18.8735455 9.3125 17.4375 C8.97283203 16.73302734 8.63316406 16.02855469 8.28320312 15.30273438 C6.4976439 11.68155352 4.62468144 8.35496783 2.23046875 5.09765625 C0 2 0 2 0 0 Z " fill="#BDEED6" transform="translate(301,51)"/>
<path d="M0 0 C2.07893381 0.93193584 3.72843711 1.71550555 5.3125 3.375 C7.0082077 5.00790371 8.4926648 5.84698765 10.5625 6.9375 C13.56085025 8.57810674 14.70976961 9.77442402 16 13 C16.99 13.66 17.98 14.32 19 15 C18.67 15.66 18.34 16.32 18 17 C15.74504149 15.10981419 13.49607317 13.21319486 11.25 11.3125 C10.61578125 10.78205078 9.9815625 10.25160156 9.328125 9.70507812 C5.80105295 6.71074092 2.75727273 3.75295455 0 0 Z " fill="#3CA16D" transform="translate(119,351)"/>
<path d="M0 0 C0.99 0.33 1.98 0.66 3 1 C1.65070536 4.83663072 -0.07751025 7.65172569 -2.625 10.8125 C-3.25664062 11.60269531 -3.88828125 12.39289063 -4.5390625 13.20703125 C-5.02117187 13.79871094 -5.50328125 14.39039063 -6 15 C-6.66 13.68 -7.32 12.36 -8 11 C-7.01 11.33 -6.02 11.66 -5 12 C-5.33 11.01 -5.66 10.02 -6 9 C-5.34 8.01 -4.68 7.02 -4 6 C-3.01 6 -2.02 6 -1 6 C-0.67 4.02 -0.34 2.04 0 0 Z " fill="#1B9253" transform="translate(304,127)"/>
<path d="M0 0 C4.07376031 1.61010527 6.76507069 4.53822271 9.75 7.625 C10.25660156 8.140625 10.76320312 8.65625 11.28515625 9.1875 C12.52803902 10.45383339 13.76465276 11.7263144 15 13 C14.01 13.33 13.02 13.66 12 14 C10.55620057 12.61068357 9.12022488 11.21323422 7.6875 9.8125 C6.88699219 9.03519531 6.08648437 8.25789063 5.26171875 7.45703125 C3.08923692 5.09694305 1.53869987 2.80352112 0 0 Z " fill="#AEE4CA" transform="translate(176,404)"/>
<path d="M0 0 C1.65 0 3.3 0 5 0 C5.33 0.66 5.66 1.32 6 2 C8.80980673 2.69227032 8.80980673 2.69227032 12.0625 3.125 C13.71958984 3.37636719 13.71958984 3.37636719 15.41015625 3.6328125 C16.26480469 3.75398437 17.11945313 3.87515625 18 4 C18 4.99 18 5.98 18 7 C11.58008874 6.42934122 5.98410537 4.32655091 0 2 C0 1.34 0 0.68 0 0 Z " fill="#299860" transform="translate(218,153)"/>
<path d="M0 0 C4.71322444 2.35661222 7.99934765 5.72071916 11 10 C11 10.66 11 11.32 11 12 C11.66 12 12.32 12 13 12 C13.66 13.32 14.32 14.64 15 16 C10.7936195 14.39756933 8.18479822 11.26602216 5.25 8 C4.74339844 7.4534375 4.23679687 6.906875 3.71484375 6.34375 C0 2.25842318 0 2.25842318 0 0 Z " fill="#D7F7DC" transform="translate(83,318)"/>
<path d="M0 0 C0.33 0 0.66 0 1 0 C1.40119824 4.36688852 0.50072411 6.26171968 -2.25 9.625 C-2.85328125 10.38039063 -3.4565625 11.13578125 -4.078125 11.9140625 C-5.91903762 13.9121262 -7.7738964 15.4535475 -10 17 C-10.66 16.67 -11.32 16.34 -12 16 C-11.52949219 15.63648438 -11.05898438 15.27296875 -10.57421875 14.8984375 C-6.50660904 11.61403214 -4.03575876 8.9286791 -2 4 C-1.33333333 2.66666667 -0.66666667 1.33333333 0 0 Z " fill="#A7E0C2" transform="translate(420,309)"/>
<path d="M0 0 C4.24822374 0.47202486 6.19989709 2.96655518 9 6 C9.598125 5.649375 10.19625 5.29875 10.8125 4.9375 C13 4 13 4 16 5 C14.3125 7.0625 14.3125 7.0625 12 9 C9.6875 9.1875 9.6875 9.1875 7 8 C4.47305933 5.83630705 2.15566702 3.53461713 0 1 C0 0.67 0 0.34 0 0 Z " fill="#B6EBC8" transform="translate(240,199)"/>
<path d="M0 0 C-2.18247908 2.18247908 -6.58008518 2.01320993 -9.53125 2.5 C-11.93415977 2.74993507 -11.93415977 2.74993507 -13 4 C-14.51469448 4.23192865 -16.03754562 4.41215238 -17.5625 4.5625 C-18.80193359 4.68818359 -18.80193359 4.68818359 -20.06640625 4.81640625 C-21.02353516 4.90728516 -21.02353516 4.90728516 -22 5 C-20.562291 2.12458199 -18.37692615 1.70585046 -15.46875 0.66796875 C-10.84666985 -0.58262572 -4.42531549 -2.21265775 0 0 Z " fill="#66BE71" transform="translate(146,166)"/>
<path d="M0 0 C-13.44874715 6.70387244 -13.44874715 6.70387244 -21 7 C-21 6.34 -21 5.68 -21 5 C-19.88625 4.7525 -18.7725 4.505 -17.625 4.25 C-13.2708658 3.18669094 -9.28852357 1.52378676 -5.19921875 -0.29296875 C-3 -1 -3 -1 0 0 Z " fill="#CCF1DE" transform="translate(285,155)"/>
<path d="M0 0 C1.5 1.375 1.5 1.375 3 3 C3 3.66 3 4.32 3 5 C3.99 5 4.98 5 6 5 C6.69710731 6.28650706 7.38242876 7.57940665 8.0625 8.875 C8.44535156 9.59429687 8.82820312 10.31359375 9.22265625 11.0546875 C9.60744141 12.01761719 9.60744141 12.01761719 10 13 C9.67 13.66 9.34 14.32 9 15 C7.87278564 13.73113036 6.74831342 12.45982438 5.625 11.1875 C4.99851563 10.47980469 4.37203125 9.77210938 3.7265625 9.04296875 C0.91043725 5.71076625 0 4.49832434 0 0 Z " fill="#ACE3C6" transform="translate(192,129)"/>
<path d="M0 0 C0.33 0 0.66 0 1 0 C1.25072213 6.39341421 1.25072213 6.39341421 0.03125 9.34375 C-1.15654134 12.40321255 -1.4095191 15.04437299 -1.625 18.3125 C-1.69976562 19.38113281 -1.77453125 20.44976562 -1.8515625 21.55078125 C-1.90054688 22.35902344 -1.94953125 23.16726562 -2 24 C-2.33 24 -2.66 24 -3 24 C-3.43315508 6.86631016 -3.43315508 6.86631016 0 0 Z " fill="#27975C" transform="translate(188,70)"/>
<path d="M0 0 C0.66 0.33 1.32 0.66 2 1 C0.625 2.5 0.625 2.5 -1 4 C-1.66 4 -2.32 4 -3 4 C-3.2475 4.598125 -3.495 5.19625 -3.75 5.8125 C-5.17638679 8.30867688 -6.68758584 9.33795232 -9 11 C-9.66 11.99 -10.32 12.98 -11 14 C-10.47315196 9.92760702 -9.36950851 7.78401363 -6.625 4.75 C-6.01914063 4.06421875 -5.41328125 3.3784375 -4.7890625 2.671875 C-3 1 -3 1 0 0 Z " fill="#A9DFC4" transform="translate(206,44)"/>
<path d="M0 0 C8.82095238 6.09714286 8.82095238 6.09714286 11 11 C11 11.66 11 12.32 11 13 C7.48144841 11.59257936 6.61387166 10.33533477 5 7 C4.01 6.67 3.02 6.34 2 6 C0.8125 2.9375 0.8125 2.9375 0 0 Z " fill="#40A26D" transform="translate(293,45)"/>
<path d="M0 0 C5.34521615 1.50334204 9.13508016 5.17120091 13 9 C13.33 9.66 13.66 10.32 14 11 C11.5625 10.625 11.5625 10.625 9 10 C8.67 9.34 8.34 8.68 8 8 C6.824375 7.3503125 6.824375 7.3503125 5.625 6.6875 C2.6795497 4.79399624 1.58095325 3.07869843 0 0 Z " fill="#369B66" transform="translate(387,176)"/>
<path d="M0 0 C0 0.33 0 0.66 0 1 C-0.84304688 1.13277344 -1.68609375 1.26554688 -2.5546875 1.40234375 C-3.65039062 1.57894531 -4.74609375 1.75554687 -5.875 1.9375 C-6.96554687 2.11152344 -8.05609375 2.28554687 -9.1796875 2.46484375 C-11.93821546 2.85551159 -11.93821546 2.85551159 -14 4 C-16.6723621 4.13415472 -19.32250488 4.04318541 -22 4 C-16.5412381 -1.4587619 -7.12857604 -0.21385728 0 0 Z " fill="#5FB58A" transform="translate(332,163)"/>
<path d="M0 0 C0.99 0 1.98 0 3 0 C1.56006357 3.21272249 -0.23018372 5.6206664 -2.5625 8.25 C-3.18253906 8.95640625 -3.80257813 9.6628125 -4.44140625 10.390625 C-5.21291016 11.18726563 -5.21291016 11.18726563 -6 12 C-6.33 12 -6.66 12 -7 12 C-7 10.02 -7 8.04 -7 6 C-6.01 6.33 -5.02 6.66 -4 7 C-4 6.34 -4 5.68 -4 5 C-3.34 5 -2.68 5 -2 5 C-2 4.01 -2 3.02 -2 2 C-1.34 2 -0.68 2 0 2 C0 1.34 0 0.68 0 0 Z " fill="#1F9456" transform="translate(411,318)"/>
<path d="M0 0 C3.99819034 2.17044619 6.83588297 4.75261673 10 8 C10.99 8.66 11.98 9.32 13 10 C12.67 10.66 12.34 11.32 12 12 C10.68 11.67 9.36 11.34 8 11 C8 10.01 8 9.02 8 8 C7.401875 7.87625 6.80375 7.7525 6.1875 7.625 C4 7 4 7 1 5 C0.3125 2.375 0.3125 2.375 0 0 Z " fill="#64BA6F" transform="translate(227,188)"/>
<path d="M0 0 C0.66 0.33 1.32 0.66 2 1 C1.01 1.33 0.02 1.66 -1 2 C-1.268125 2.7425 -1.53625 3.485 -1.8125 4.25 C-3.44526891 8.03114905 -5.63418125 9.69012438 -9 12 C-11.875 12.3125 -11.875 12.3125 -14 12 C-10.25 9 -10.25 9 -8 9 C-8 8.34 -8 7.68 -8 7 C-6.36395804 5.62926214 -4.69321939 4.29944744 -3 3 C-1.9826127 2.01769502 -0.97403883 1.02530403 0 0 Z " fill="#9ED8BA" transform="translate(296,142)"/>
<path d="M0 0 C4.24319537 1.43758532 7.23547015 3.53990863 10.6875 6.375 C11.64011719 7.14585938 12.59273438 7.91671875 13.57421875 8.7109375 C15.77400564 10.78674285 16.91503119 12.22095709 18 15 C11.8886597 10.4933133 5.76275548 5.94793965 0 1 C0 0.67 0 0.34 0 0 Z " fill="#CEF4E2" transform="translate(283,36)"/>
<path d="M0 0 C5.3711513 1.0145508 10.31789279 2.03085884 15 5 C16.375 7.1875 16.375 7.1875 17 9 C13.10391502 7.51095825 9.40902982 5.75621287 5.6875 3.875 C4.61886719 3.33617187 3.55023438 2.79734375 2.44921875 2.2421875 C1.64097656 1.83226563 0.83273437 1.42234375 0 1 C0 0.67 0 0.34 0 0 Z " fill="#B2E4CB" transform="translate(268,30)"/>
<path d="M0 0 C0.33 0 0.66 0 1 0 C1.40735653 8.50922528 0.43092956 15.8390222 -2 24 C-2.33 24 -2.66 24 -3 24 C-2.85970581 21.8537974 -2.71261836 19.70803782 -2.5625 17.5625 C-2.48128906 16.36753906 -2.40007812 15.17257812 -2.31640625 13.94140625 C-2 11 -2 11 -1 10 C-0.76712992 8.31816052 -0.58735834 6.6287584 -0.4375 4.9375 C-0.31181641 3.55884766 -0.31181641 3.55884766 -0.18359375 2.15234375 C-0.12300781 1.44207031 -0.06242187 0.73179687 0 0 Z " fill="#2E9B61" transform="translate(433,264)"/>
<path d="M0 0 C1.32 0.33 2.64 0.66 4 1 C2.71034824 2.37562854 1.37310707 3.70766393 0 5 C-0.66 5 -1.32 5 -2 5 C-2 5.66 -2 6.32 -2 7 C-3.98 7.66 -5.96 8.32 -8 9 C-6.49407198 4.78340155 -3.68077406 3.32048799 0 1 C0 0.67 0 0.34 0 0 Z " fill="#1F9255" transform="translate(290,144)"/>
<path d="M0 0 C-3.3 2.64 -6.6 5.28 -10 8 C-10.66 7.67 -11.32 7.34 -12 7 C-11.07038578 5.84775972 -10.1309875 4.70340824 -9.1875 3.5625 C-8.66542969 2.92441406 -8.14335937 2.28632813 -7.60546875 1.62890625 C-4.95932601 -1.05586631 -3.53585792 -1.17861931 0 0 Z " fill="#24965D" transform="translate(282,184)"/>
<path d="M0 0 C0 3.93154432 -1.25327015 6.5065403 -3 10 C-3.99 10.33 -4.98 10.66 -6 11 C-6 12.65 -6 14.3 -6 16 C-6.66 16 -7.32 16 -8 16 C-6.65678452 9.68688724 -3.75248411 5.20391664 0 0 Z " fill="#71C27D" transform="translate(82,204)"/>
<path d="M0 0 C-5.86215164 3.14819255 -11.5811453 5.26375242 -18 7 C-15.54234547 4.18652343 -12.93721011 2.80685406 -9.5625 1.25 C-8.61503906 0.80140625 -7.66757813 0.3528125 -6.69140625 -0.109375 C-3.87551411 -1.04119417 -2.71771213 -1.05367562 0 0 Z " fill="#D4F4D5" transform="translate(130,168)"/>
<path d="M0 0 C0 0.99 0 1.98 0 3 C-0.66 3.66 -1.32 4.32 -2 5 C-3.32 5 -4.64 5 -6 5 C-6.66 6.65 -7.32 8.3 -8 10 C-8.66 10 -9.32 10 -10 10 C-10.33 10.99 -10.66 11.98 -11 13 C-11.66 12.67 -12.32 12.34 -13 12 C-12.34 11.01 -11.68 10.02 -11 9 C-10.34 9 -9.68 9 -9 9 C-8.979375 8.236875 -8.95875 7.47375 -8.9375 6.6875 C-8 4 -8 4 -4.5 2.25 C-3.345 1.8375 -2.19 1.425 -1 1 C-0.67 0.67 -0.34 0.34 0 0 Z " fill="#20A54D" transform="translate(180,272)"/>
<path d="M0 0 C0.33 0.66 0.66 1.32 1 2 C-2.31457218 6.69564393 -6.36279281 9.72469104 -11 13 C-11.66 12.67 -12.32 12.34 -13 12 C-11.71034824 10.62437146 -10.37310707 9.29233607 -9 8 C-8.34 8 -7.68 8 -7 8 C-7 7.34 -7 6.68 -7 6 C-6.38125 5.9175 -5.7625 5.835 -5.125 5.75 C-2.82618538 5.19392091 -2.82618538 5.19392091 -1.8125 3 C-1.544375 2.34 -1.27625 1.68 -1 1 C-0.67 0.67 -0.34 0.34 0 0 Z " fill="#189F49" transform="translate(197,256)"/>
<path d="M0 0 C1.94045688 0.4241929 3.87731761 0.86485995 5.8125 1.3125 C7.43091797 1.67794922 7.43091797 1.67794922 9.08203125 2.05078125 C12 3 12 3 15 6 C12.03 5.67 9.06 5.34 6 5 C6 4.34 6 3.68 6 3 C5.195625 2.87625 4.39125 2.7525 3.5625 2.625 C2.716875 2.41875 1.87125 2.2125 1 2 C0.67 1.34 0.34 0.68 0 0 Z " fill="#27965C" transform="translate(362,166)"/>
<path d="M0 0 C3.80635497 3.20760251 7.54563567 6.40746109 11 10 C10.67 10.66 10.34 11.32 10 12 C9.236875 11.38125 8.47375 10.7625 7.6875 10.125 C5.00374191 7.94402948 5.00374191 7.94402948 2 6 C2.33 5.34 2.66 4.68 3 4 C2.01 4 1.02 4 0 4 C0 2.68 0 1.36 0 0 Z " fill="#3C9F6A" transform="translate(403,188)"/>
<path d="M0 0 C1.32 0.33 2.64 0.66 4 1 C2.69013727 2.16962686 1.3770374 3.33562944 0.0625 4.5 C-0.66839844 5.1496875 -1.39929688 5.799375 -2.15234375 6.46875 C-4 8 -4 8 -5 8 C-5 6.35 -5 4.7 -5 3 C-3.68 3 -2.36 3 -1 3 C-0.67 2.01 -0.34 1.02 0 0 Z " fill="#269457" transform="translate(369,358)"/>
<path d="M0 0 C0.99 0.33 1.98 0.66 3 1 C1.41641358 4.16717283 0.54736301 5.73268318 -2.6875 7.3125 C-3.450625 7.539375 -4.21375 7.76625 -5 8 C-5 7.01 -5 6.02 -5 5 C-4.34 5 -3.68 5 -3 5 C-2.87625 4.360625 -2.7525 3.72125 -2.625 3.0625 C-2.41875 2.381875 -2.2125 1.70125 -2 1 C-1.34 0.67 -0.68 0.34 0 0 Z " fill="#2C9860" transform="translate(382,346)"/>
<path d="M0 0 C1.485 0.99 1.485 0.99 3 2 C3 2.66 3 3.32 3 4 C3.66 4 4.32 4 5 4 C6.7265625 5.96875 6.7265625 5.96875 8.625 8.5 C9.25664062 9.3353125 9.88828125 10.170625 10.5390625 11.03125 C11.26222656 12.00578125 11.26222656 12.00578125 12 13 C9 13 9 13 6.73828125 10.91796875 C5.93777344 10.01691406 5.13726562 9.11585938 4.3125 8.1875 C3.50425781 7.29417969 2.69601562 6.40085938 1.86328125 5.48046875 C0 3 0 3 0 0 Z " fill="#C9EFDA" transform="translate(406,188)"/>
<path d="M0 0 C-1 1 -2 2 -3 3 C-3.515625 3.556875 -4.03125 4.11375 -4.5625 4.6875 C-6 6 -6 6 -8 6 C-8 6.66 -8 7.32 -8 8 C-8.66 8 -9.32 8 -10 8 C-10.33 7.01 -10.66 6.02 -11 5 C-10.01 4.67 -9.02 4.34 -8 4 C-7.67 3.01 -7.34 2.02 -7 1 C-4.53721199 -0.231394 -2.7204945 -0.07159196 0 0 Z " fill="#23975B" transform="translate(272,451)"/>
<path d="M0 0 C3.55007718 3.9050849 4.81819916 6.97734643 6 12 C4 12 4 12 1.875 10.5 C-0.83547375 6.88603499 -0.29634575 4.44518626 0 0 Z " fill="#329B65" transform="translate(420,208)"/>
<path d="M0 0 C4.28806873 0.47645208 6.26647487 1.65902484 9 5 C9 5.66 9 6.32 9 7 C6.62051228 6.82374165 5.29774151 6.30280227 3.62109375 4.59765625 C2.37884514 3.09350908 1.18623944 1.54870149 0 0 Z " fill="#229255" transform="translate(112,344)"/>
<path d="M0 0 C0.680625 0.70125 1.36125 1.4025 2.0625 2.125 C5.20780513 5.27934337 8.5888386 8.13934304 12 11 C11.01 11.33 10.02 11.66 9 12 C1.33257403 4.88610478 1.33257403 4.88610478 0 0 Z " fill="#BAEAD0" transform="translate(155,384)"/>
<path d="M0 0 C2.25 0.125 2.25 0.125 5 1 C7.1875 3.875 7.1875 3.875 9 7 C9.99 8.485 9.99 8.485 11 10 C7.81326038 8.59698853 5.67778594 6.92234929 3.25 4.4375 C2.63640625 3.81746094 2.0228125 3.19742187 1.390625 2.55859375 C0 1 0 1 0 0 Z " fill="#77C48B" transform="translate(100,334)"/>
<path d="M0 0 C0.33 0.66 0.66 1.32 1 2 C-1.31 4.64 -3.62 7.28 -6 10 C-6.66 9.67 -7.32 9.34 -8 9 C-7.67 8.01 -7.34 7.02 -7 6 C-6.34 6 -5.68 6 -5 6 C-5 5.34 -5 4.68 -5 4 C-3.37373596 2.61767557 -1.7074998 1.28062485 0 0 Z " fill="#119C49" transform="translate(151,298)"/>
<path d="M0 0 C0.99 0.495 0.99 0.495 2 1 C2 1.99 2 2.98 2 4 C2.9590625 4.2165625 2.9590625 4.2165625 3.9375 4.4375 C6 5 6 5 7 6 C7.04080783 7.99958364 7.04254356 10.00045254 7 12 C0 3.55172414 0 3.55172414 0 0 Z " fill="#39A06A" transform="translate(189,122)"/>
<path d="M0 0 C2.31459868 1.81817001 2.95377187 2.75615543 3.51171875 5.69921875 C3.56972656 6.68535156 3.62773437 7.67148438 3.6875 8.6875 C3.75324219 9.68136719 3.81898438 10.67523438 3.88671875 11.69921875 C3.92410156 12.45847656 3.96148437 13.21773437 4 14 C1.3184721 10.92307254 0.57912193 8.80265337 0.3125 4.75 C0.24675781 3.85796875 0.18101562 2.9659375 0.11328125 2.046875 C0.07589844 1.37140625 0.03851563 0.6959375 0 0 Z " fill="#47A776" transform="translate(185,108)"/>
<path d="M0 0 C1.43088528 2.86177057 0.59991697 4.93375773 0 8 C-0.66 8 -1.32 8 -2 8 C-2.66 10.64 -3.32 13.28 -4 16 C-5.17744094 11.29023622 -4.4890573 10.07300662 -2.5625 5.75 C-2.08941406 4.67234375 -1.61632812 3.5946875 -1.12890625 2.484375 C-0.75636719 1.66453125 -0.38382812 0.8446875 0 0 Z " fill="#7DC889" transform="translate(73,220)"/>
<path d="M0 0 C0.66 0.33 1.32 0.66 2 1 C-2 7.57142857 -2 7.57142857 -6 9 C-5.6875 7.0625 -5.6875 7.0625 -5 5 C-4.01 4.67 -3.02 4.34 -2 4 C-0.79117904 1.99983534 -0.79117904 1.99983534 0 0 Z " fill="#3AA16B" transform="translate(258,200)"/>
<path d="M0 0 C0.66 0.33 1.32 0.66 2 1 C-0.14800843 3.36280927 -2.16680467 4.58340234 -5 6 C-5.33 6.66 -5.66 7.32 -6 8 C-7.32 7.34 -8.64 6.68 -10 6 C-8.68 5.67 -7.36 5.34 -6 5 C-6 4.34 -6 3.68 -6 3 C-4.03533587 1.93224776 -2.03144641 0.93446535 0 0 Z " fill="#7DC889" transform="translate(118,172)"/>
<path d="M0 0 C1.65 0 3.3 0 5 0 C2.03653214 2.47186455 -0.54041689 3.66248361 -4.25 4.6875 C-5.14203125 4.93886719 -6.0340625 5.19023437 -6.953125 5.44921875 C-7.62859375 5.63097656 -8.3040625 5.81273437 -9 6 C-8.34 4.68 -7.68 3.36 -7 2 C-4.69 2 -2.38 2 0 2 C0 1.34 0 0.68 0 0 Z " fill="#4BAA77" transform="translate(277,154)"/>
<path d="M0 0 C0.66 0.33 1.32 0.66 2 1 C-0.64 3.97 -3.28 6.94 -6 10 C-6.99 9.67 -7.98 9.34 -9 9 C-7.625 7.5 -7.625 7.5 -6 6 C-5.34 6 -4.68 6 -4 6 C-3.71125 5.38125 -3.4225 4.7625 -3.125 4.125 C-2 2 -2 2 0 0 Z " fill="#9CD8B7" transform="translate(300,424)"/>
<path d="M0 0 C0 0.66 0 1.32 0 2 C-0.61875 2.0825 -1.2375 2.165 -1.875 2.25 C-4.15042479 2.79923543 -4.15042479 2.79923543 -5.125 4.875 C-5.41375 5.57625 -5.7025 6.2775 -6 7 C-6.99 8.485 -6.99 8.485 -8 10 C-8.66 9.67 -9.32 9.34 -10 9 C-4.4 0 -4.4 0 0 0 Z " fill="#2DAF53" transform="translate(138,310)"/>
<path d="M0 0 C0.33 0.66 0.66 1.32 1 2 C1.66 2 2.32 2 3 2 C5.42857143 8.28571429 5.42857143 8.28571429 4 12 C4 11.34 4 10.68 4 10 C3.34 10 2.68 10 2 10 C1.34 6.7 0.68 3.4 0 0 Z " fill="#C9EFCA" transform="translate(66,282)"/>
<path d="M0 0 C5.35048061 0.37328935 7.50912907 1.9957657 11 6 C7.61121488 6 6.60242783 5.35638802 3.8125 3.5625 C2.73935547 2.88380859 2.73935547 2.88380859 1.64453125 2.19140625 C1.10183594 1.79824219 0.55914062 1.40507812 0 1 C0 0.67 0 0.34 0 0 Z " fill="#BDE9C2" transform="translate(208,174)"/>
<path d="M0 0 C3.55780196 0.60990891 6.6828589 1.5783681 10 3 C10 3.66 10 4.32 10 5 C8.35 5 6.7 5 5 5 C4.67 4.01 4.34 3.02 4 2 C2.68 2 1.36 2 0 2 C0 1.34 0 0.68 0 0 Z " fill="#74C37F" transform="translate(198,170)"/>
<path d="M0 0 C0.66 0 1.32 0 2 0 C1.56802365 4.7517398 0.67230705 6.92000054 -3 10 C-2.67 7.69 -2.34 5.38 -2 3 C-1.34 3 -0.68 3 0 3 C0 2.01 0 1.02 0 0 Z " fill="#2C995F" transform="translate(310,118)"/>
<path d="M0 0 C-2.12780579 2.34058637 -4.11562221 3.70700306 -7 5 C-7 3.35 -7 1.7 -7 0 C-3.86650268 -1.04449911 -3.01031744 -0.93423645 0 0 Z " fill="#25955C" transform="translate(315,412)"/>
<path d="M0 0 C0.66 0.33 1.32 0.66 2 1 C1.21625 1.763125 0.4325 2.52625 -0.375 3.3125 C-3.07257717 5.90891805 -3.07257717 5.90891805 -5 9 C-5.66 8.67 -6.32 8.34 -7 8 C-5.08864614 4.46399535 -3.37357234 2.21027154 0 0 Z " fill="#C6EFC8" transform="translate(97,185)"/>
<path d="M0 0 C0.598125 0.20625 1.19625 0.4125 1.8125 0.625 C0.8225 0.955 -0.1675 1.285 -1.1875 1.625 C-1.1875 2.285 -1.1875 2.945 -1.1875 3.625 C-3.6875 5.25 -3.6875 5.25 -6.1875 6.625 C-5.875 4.25 -5.875 4.25 -5.1875 1.625 C-2.1875 -0.375 -2.1875 -0.375 0 0 Z " fill="#289559" transform="translate(401.1875,331.375)"/>
<path d="M0 0 C0.66 0 1.32 0 2 0 C2.474375 0.804375 2.94875 1.60875 3.4375 2.4375 C4.79983672 5.2918076 4.79983672 5.2918076 8 6 C8.33 7.65 8.66 9.3 9 11 C4.60708214 7.68090651 2.1772135 5.20112114 0 0 Z " fill="#64BB6F" transform="translate(85,317)"/>
<path d="M0 0 C0.99 0.33 1.98 0.66 3 1 C2.25 7.625 2.25 7.625 0 11 C0 7.37 0 3.74 0 0 Z " fill="#1A9151" transform="translate(427,285)"/>
<path d="M0 0 C-1.12005631 3.36016893 -2.37211797 4.69064913 -5 7 C-5.66 7 -6.32 7 -7 7 C-6.75 4.625 -6.75 4.625 -6 2 C-3.84898936 0.54286376 -2.59713506 0 0 0 Z " fill="#26A84E" transform="translate(219,237)"/>
<path d="M0 0 C1.14926266 0.95421808 2.29430541 1.91352045 3.4375 2.875 C4.07558594 3.40867187 4.71367188 3.94234375 5.37109375 4.4921875 C7 6 7 6 8 8 C4.21479387 7.45925627 2.40822445 5.92427254 0 3 C0 2.01 0 1.02 0 0 Z " fill="#B1E6CB" transform="translate(111,344)"/>
<path d="M0 0 C-6.4 3.07692308 -6.4 3.07692308 -9.4375 2.6875 C-9.953125 2.460625 -10.46875 2.23375 -11 2 C-3.57142857 -1.57142857 -3.57142857 -1.57142857 0 0 Z " fill="#4EB05B" transform="translate(130,171)"/>
<path d="M0 0 C1.32 0.33 2.64 0.66 4 1 C4 1.66 4 2.32 4 3 C4.928125 3.12375 4.928125 3.12375 5.875 3.25 C8 4 8 4 9.25 6.0625 C9.4975 6.701875 9.745 7.34125 10 8 C6.05205855 6.32971708 3.18203882 3.8204435 0 1 C0 0.67 0 0.34 0 0 Z " fill="#CAF1DD" transform="translate(202,144)"/>
<path d="M0 0 C1.8871875 0.0309375 1.8871875 0.0309375 3.8125 0.0625 C0.01708337 2.27649303 -3.94379421 3.07230198 -8.1875 4.0625 C-7.8575 3.0725 -7.5275 2.0825 -7.1875 1.0625 C-4.43671116 0.14557039 -2.82801087 -0.04636083 0 0 Z " fill="#A6DDC2" transform="translate(236.1875,28.9375)"/>
<path d="M0 0 C0.33 0 0.66 0 1 0 C1.36923077 6.52307692 1.36923077 6.52307692 -0.5 8.9375 C-0.995 9.288125 -1.49 9.63875 -2 10 C-3 8 -3 8 -2.44140625 6.0546875 C-2.15136719 5.33539063 -1.86132812 4.61609375 -1.5625 3.875 C-1.27503906 3.15054687 -0.98757813 2.42609375 -0.69140625 1.6796875 C-0.46324219 1.12539063 -0.23507812 0.57109375 0 0 Z " fill="#A5DDBE" transform="translate(430,288)"/>
<path d="M0 0 C3.91402949 1.26941497 5.79072873 2.51167694 8 6 C6.35 5.67 4.7 5.34 3 5 C3 4.34 3 3.68 3 3 C2.01 3 1.02 3 0 3 C0 2.01 0 1.02 0 0 Z " fill="#47A876" transform="translate(285,39)"/>
<path d="M0 0 C0.66 0.33 1.32 0.66 2 1 C-0.66666667 3.66666667 -3.33333333 6.33333333 -6 9 C-5.67 7.35 -5.34 5.7 -5 4 C-4.01 4 -3.02 4 -2 4 C-1.34 2.68 -0.68 1.36 0 0 Z " fill="#159947" transform="translate(114,332)"/>
<path d="M0 0 C0.66 0.33 1.32 0.66 2 1 C-0.80804268 3.96404505 -3.18315774 6.44499019 -7 8 C-4.53846154 3.2 -4.53846154 3.2 -1.8125 2.1875 C-0.9153125 2.0946875 -0.9153125 2.0946875 0 2 C0 1.34 0 0.68 0 0 Z " fill="#139B46" transform="translate(138,310)"/>
<path d="M0 0 C2.475 0.495 2.475 0.495 5 1 C5.33 2.65 5.66 4.3 6 6 C3.97945196 4.35830472 1.97956942 2.69088222 0 1 C0 0.67 0 0.34 0 0 Z " fill="#2C9860" transform="translate(185,411)"/>
<path d="M0 0 C2.375 0.6875 2.375 0.6875 5 2 C6.3125 4.625 6.3125 4.625 7 7 C3.17053157 5.54744301 1.87949705 3.57104439 0 0 Z " fill="#44A56F" transform="translate(157,385)"/>
<path d="M0 0 C1.32 0.66 2.64 1.32 4 2 C2.71034824 3.37562854 1.37310707 4.70766393 0 6 C-0.66 6 -1.32 6 -2 6 C-2 5.01 -2 4.02 -2 3 C-1.34 3 -0.68 3 0 3 C0 2.01 0 1.02 0 0 Z " fill="#209257" transform="translate(360,365)"/>
<path d="M0 0 C0.66 0.33 1.32 0.66 2 1 C0.38405168 3.04119788 -1.2856382 5.04072937 -3 7 C-3.66 7 -4.32 7 -5 7 C-3.75023244 3.34683329 -3.32901247 2.21934164 0 0 Z " fill="#2FB154" transform="translate(115,329)"/>
<path d="M0 0 C0 3 0 3 -1.3125 4.38671875 C-2.875 5.59114583 -4.4375 6.79557292 -6 8 C-5.65120368 4.74456771 -4.97866739 3.98126893 -2.4375 1.75 C-1.633125 1.1725 -0.82875 0.595 0 0 Z " fill="#D6F4E1" transform="translate(411,324)"/>
<path d="M0 0 C1.98 0.66 3.96 1.32 6 2 C2.25 5 2.25 5 0 5 C-0.33 5.66 -0.66 6.32 -1 7 C-0.67 4.69 -0.34 2.38 0 0 Z " fill="#3DB161" transform="translate(246,206)"/>
<path d="M0 0 C0.99 0.495 0.99 0.495 2 1 C2.59355614 3.64860427 2.74209269 6.29197322 3 9 C2.34 9 1.68 9 1 9 C0.67 6.03 0.34 3.06 0 0 Z " fill="#C0EDD6" transform="translate(183,107)"/>
<path d="M0 0 C0.99 0.33 1.98 0.66 3 1 C1.02 2.98 -0.96 4.96 -3 7 C-3.66 6.67 -4.32 6.34 -5 6 C-3.35 4.02 -1.7 2.04 0 0 Z " fill="#CEF3E2" transform="translate(279,444)"/>
<path d="M0 0 C1.32 0.33 2.64 0.66 4 1 C2.02 2.98 0.04 4.96 -2 7 C-2.66 6.67 -3.32 6.34 -4 6 C-3.525625 5.566875 -3.05125 5.13375 -2.5625 4.6875 C-0.76313043 2.97690387 -0.76313043 2.97690387 0 0 Z " fill="#CAEFDD" transform="translate(302,422)"/>
<path d="M0 0 C0.66 0.33 1.32 0.66 2 1 C0.02 2.98 -1.96 4.96 -4 7 C-4.66 6.67 -5.32 6.34 -6 6 C-4 4 -2 2 0 0 Z " fill="#C9F1DC" transform="translate(352,378)"/>
<path d="M0 0 C0.66 0.33 1.32 0.66 2 1 C0.35 2.98 -1.3 4.96 -3 7 C-3.99 6.67 -4.98 6.34 -6 6 C-4.02 4.02 -2.04 2.04 0 0 Z " fill="#8FD3AE" transform="translate(358,371)"/>
<path d="M0 0 C0.93065133 2.60582371 1.14917407 3.64198224 0.0625 6.25 C-0.4634375 7.11625 -0.4634375 7.11625 -1 8 C-1.33 8 -1.66 8 -2 8 C-2 5.69 -2 3.38 -2 1 C-1.34 0.67 -0.68 0.34 0 0 Z " fill="#47A676" transform="translate(426,296)"/>
<path d="M0 0 C0.33 0.66 0.66 1.32 1 2 C0.06553465 4.03144641 -0.93224776 6.03533587 -2 8 C-2.66 8 -3.32 8 -4 8 C-2.25 2.25 -2.25 2.25 0 0 Z " fill="#3A9F69" transform="translate(199,52)"/>
</svg>
