<?xml version="1.0" encoding="utf-8" ?>
<svg xmlns="http://www.w3.org/2000/svg" xmlns:xlink="http://www.w3.org/1999/xlink" width="24" height="21.3333" viewBox="0 0 24 21.3333">
	<defs>
		<clipPath id="clipPath5619557009">
			<path d="M0 0L24 0L24 21.3333L0 21.3333L0 0Z" fill-rule="nonzero" transform="matrix(1 0 0 1 -0 -0)"/>
		</clipPath>
	</defs>
	<g clip-path="url(#clipPath5619557009)">
		<path d="M19.9999 7.11111L15.2378 7.11111L10.8586 0.298519C10.7992 0.206206 10.7177 0.133373 10.6142 0.0800197C10.5107 0.0266668 10.3991 -6.48249e-06 10.2795 1.18174e-09L7.55031 1.18174e-09C7.10739 1.18174e-09 6.78781 0.376667 6.90947 0.755185L8.95239 7.11111L4.66656 7.11111L2.86656 4.97778C2.74072 4.82852 2.54281 4.74074 2.33322 4.74074L0.666973 4.74074C0.233223 4.74074 -0.0851105 5.10296 0.0203062 5.47704L1.33322 9.48148L0.0203062 13.4859C-0.0851105 13.86 0.233223 14.2222 0.666973 14.2222L2.33322 14.2222C2.54322 14.2222 2.74072 14.1344 2.86656 13.9852L4.66656 11.8519L8.95239 11.8519L6.90947 18.2074C6.78781 18.5859 7.10739 18.963 7.55031 18.963L10.2795 18.963C10.5186 18.963 10.7395 18.8489 10.8582 18.6644L15.2378 11.8519L19.9999 11.8519C21.4728 11.8519 23.9999 10.7907 23.9999 9.48148C23.9999 8.17222 21.4728 7.11111 19.9999 7.11111Z" fill-rule="nonzero" transform="matrix(1 0 0 1 0.000110626 1.18519)" fill="rgb(37, 99, 235)"/>
	</g>
</svg>
