<?xml version="1.0" encoding="utf-8" ?>
<svg xmlns="http://www.w3.org/2000/svg" xmlns:xlink="http://www.w3.org/1999/xlink" width="20" height="20" viewBox="0 0 20 20">
	<defs>
		<clipPath id="clipPath4704284333">
			<path d="M0 0L20 0L20 20L0 20L0 0Z" fill-rule="nonzero" transform="matrix(1 0 0 1 -0 -0)"/>
		</clipPath>
	</defs>
	<g clip-path="url(#clipPath4704284333)">
		<path d="M8.125 0C3.64492 0 0 3.64492 0 8.125C0 12.6051 3.64492 16.25 8.125 16.25C12.6051 16.25 16.25 12.6051 16.25 8.125C16.25 3.64492 12.6051 0 8.125 0ZM12.3535 5.40195L7.10352 11.652C7.04525 11.7213 6.97521 11.7755 6.89339 11.8144C6.81157 11.8534 6.72536 11.8736 6.63477 11.875L6.62422 11.875C6.53564 11.875 6.45089 11.8569 6.36999 11.8209C6.28908 11.7848 6.219 11.7338 6.15977 11.668L3.90977 9.16797C3.78942 9.04033 3.73284 8.88886 3.74004 8.71358C3.74723 8.5383 3.81603 8.39199 3.94643 8.27464C4.07683 8.15729 4.22957 8.10424 4.40463 8.1155C4.5797 8.12676 4.72438 8.19894 4.83867 8.33203L6.60781 10.2977L11.3965 4.59805C11.5082 4.46884 11.6493 4.39745 11.8195 4.38388C11.9898 4.37031 12.1404 4.41847 12.2712 4.52834C12.402 4.63822 12.4754 4.7782 12.4914 4.94827C12.5075 5.11835 12.4615 5.26958 12.3535 5.40195Z" fill-rule="nonzero" transform="matrix(1 0 0 1 1.875 1.875)" fill="rgb(46, 125, 50)"/>
	</g>
</svg>
